<?xml version="1.0" encoding="UTF-8" standalone="no"?>
<!-- Created with Inkscape (http://www.inkscape.org/) -->

<svg
   xmlns:dc="http://purl.org/dc/elements/1.1/"
   xmlns:cc="http://creativecommons.org/ns#"
   xmlns:rdf="http://www.w3.org/1999/02/22-rdf-syntax-ns#"
   xmlns:svg="http://www.w3.org/2000/svg"
   xmlns="http://www.w3.org/2000/svg"
   xmlns:xlink="http://www.w3.org/1999/xlink"
   xmlns:sodipodi="http://sodipodi.sourceforge.net/DTD/sodipodi-0.dtd"
   xmlns:inkscape="http://www.inkscape.org/namespaces/inkscape"
   width="512"
   height="512"
   viewBox="0 0 135.46666 135.46667"
   version="1.1"
   id="svg8"
   sodipodi:docname="scaptotrigona_bipunctata.svg"
   inkscape:export-filename="/home/demo/Downloads/wikimedia_ready/scaptotrigona_bipunctata.svg.png"
   inkscape:export-xdpi="96"
   inkscape:export-ydpi="96"
   inkscape:version="0.92.4 (5da689c313, 2019-01-14)">
  <defs
     id="defs2">
    <inkscape:path-effect
       effect="skeletal"
       id="path-effect4688"
       is_visible="true"
       pattern="M 0,5 C 0,2.24 2.24,0 5,0 7.76,0 10,2.24 10,5 10,7.76 7.76,10 5,10 2.24,10 0,7.76 0,5 Z"
       copytype="single_stretched"
       prop_scale="0.26458332"
       scale_y_rel="false"
       spacing="0"
       normal_offset="0"
       tang_offset="0"
       prop_units="false"
       vertical_pattern="false"
       fuse_tolerance="0" />
    <inkscape:path-effect
       effect="spiro"
       id="path-effect4686"
       is_visible="true" />
    <inkscape:path-effect
       effect="simplify"
       id="path-effect4684"
       is_visible="true"
       steps="1"
       threshold="9.90099e-05"
       smooth_angles="360"
       helper_size="0"
       simplify_individual_paths="false"
       simplify_just_coalesce="false"
       simplifyindividualpaths="false"
       simplifyJustCoalesce="false" />
    <linearGradient
       id="linearGradient3351">
      <stop
         id="stop3353"
         offset="0"
         style="stop-color:#000000;stop-opacity:1;" />
      <stop
         id="stop3355"
         offset="1"
         style="stop-color:#959595;stop-opacity:0;" />
    </linearGradient>
    <linearGradient
       id="linearGradient3507">
      <stop
         id="stop3509"
         offset="0"
         style="stop-color:#000000;stop-opacity:1;" />
      <stop
         id="stop3511"
         offset="1"
         style="stop-color:#c6c6c6;stop-opacity:1;" />
    </linearGradient>
    <linearGradient
       id="linearGradient3499">
      <stop
         id="stop3501"
         offset="0"
         style="stop-color:#ffec4b;stop-opacity:1;" />
      <stop
         id="stop3503"
         offset="1"
         style="stop-color:#ffec4b;stop-opacity:0;" />
    </linearGradient>
    <linearGradient
       id="linearGradient3480">
      <stop
         id="stop3482"
         offset="0"
         style="stop-color:#4492ed;stop-opacity:1;" />
      <stop
         id="stop3484"
         offset="1"
         style="stop-color:#f6faff;stop-opacity:0.70469797;" />
    </linearGradient>
    <linearGradient
       id="linearGradient3256">
      <stop
         id="stop3258"
         offset="0"
         style="stop-color:#ffec4b;stop-opacity:1;" />
      <stop
         id="stop3260"
         offset="1"
         style="stop-color:#ffffff;stop-opacity:1;" />
    </linearGradient>
    <linearGradient
       id="linearGradient3158">
      <stop
         id="stop3160"
         offset="0"
         style="stop-color:#7e410f;stop-opacity:1;" />
      <stop
         id="stop3162"
         offset="1"
         style="stop-color:#ffffff;stop-opacity:1;" />
    </linearGradient>
    <inkscape:perspective
       id="perspective9"
       inkscape:persp3d-origin="372.04722 : 350.7874 : 1"
       inkscape:vp_z="744.09445 : 526.18111 : 1"
       inkscape:vp_y="0 : 1000 : 0"
       inkscape:vp_x="0 : 526.18111 : 1"
       sodipodi:type="inkscape:persp3d" />
    <linearGradient
       y2="10.821128"
       x2="-66.017616"
       y1="19.37364"
       x1="-66.017616"
       gradientTransform="translate(-35.348556,26.713817)"
       gradientUnits="userSpaceOnUse"
       id="linearGradient3356"
       xlink:href="#linearGradient3256"
       inkscape:collect="always" />
    <linearGradient
       y2="18.612778"
       x2="-66.096527"
       y1="33.696312"
       x1="-66.096527"
       gradientTransform="translate(-35.348556,26.713817)"
       gradientUnits="userSpaceOnUse"
       id="linearGradient3358"
       xlink:href="#linearGradient3256"
       inkscape:collect="always" />
    <linearGradient
       y2="10.821128"
       x2="-66.017616"
       y1="19.37364"
       x1="-66.017616"
       gradientTransform="translate(-36.022552,27.093278)"
       gradientUnits="userSpaceOnUse"
       id="linearGradient3385"
       xlink:href="#linearGradient3256"
       inkscape:collect="always" />
    <linearGradient
       y2="18.612778"
       x2="-66.096527"
       y1="33.696312"
       x1="-66.096527"
       gradientTransform="translate(-36.022552,27.093278)"
       gradientUnits="userSpaceOnUse"
       id="linearGradient3387"
       xlink:href="#linearGradient3256"
       inkscape:collect="always" />
    <linearGradient
       y2="10.821128"
       x2="-66.017616"
       y1="19.37364"
       x1="-66.017616"
       gradientTransform="matrix(-1,0,0,-1.6157429,-172.49071,168.33896)"
       gradientUnits="userSpaceOnUse"
       id="linearGradient3418"
       xlink:href="#linearGradient3256"
       inkscape:collect="always" />
    <linearGradient
       gradientUnits="userSpaceOnUse"
       y2="86.767654"
       x2="-98.174484"
       y1="93.971115"
       x1="-146.56049"
       id="linearGradient3486"
       xlink:href="#linearGradient3480"
       inkscape:collect="always" />
    <linearGradient
       gradientTransform="matrix(-1,0,0,1,-181.01204,-2.2164502)"
       y2="86.767654"
       x2="-98.174484"
       y1="93.971115"
       x1="-146.56049"
       gradientUnits="userSpaceOnUse"
       id="linearGradient3490"
       xlink:href="#linearGradient3480"
       inkscape:collect="always" />
    <linearGradient
       y2="86.767654"
       x2="-98.174484"
       y1="93.971115"
       x1="-146.56049"
       gradientTransform="translate(156.45099,-8.2420815)"
       gradientUnits="userSpaceOnUse"
       id="linearGradient3402"
       xlink:href="#linearGradient3480"
       inkscape:collect="always" />
    <clipPath
       id="clipPath20"
       clipPathUnits="userSpaceOnUse">
      <path
         inkscape:connector-curvature="0"
         id="path18"
         d="M 0,595.276 H 841.89 V 0 H 0 Z" />
    </clipPath>
    <clipPath
       id="clipPath36"
       clipPathUnits="userSpaceOnUse">
      <path
         inkscape:connector-curvature="0"
         id="path34"
         d="M 0,0 H 841.89 V 595.276 H 0 Z" />
    </clipPath>
    <clipPath
       id="clipPath48"
       clipPathUnits="userSpaceOnUse">
      <path
         inkscape:connector-curvature="0"
         id="path46"
         d="M 44.555,572.714 C 23.863,567.045 20.461,524.525 20.461,491.926 v 0 c 0,-32.598 -22.266,-97.095 -5.192,-179.3 v 0 C 32.343,230.422 14.702,152.469 23.773,129.792 v 0 C 32.844,107.114 -2.784,52.815 66.949,28.721 v 0 c 38.486,-13.299 55.445,-2.501 72.924,8.296 v 0 c 14.19,8.766 28.722,17.532 55.395,13.405 v 0 C 254.796,41.208 263.3,32.563 358.261,32.563 v 0 c 94.961,0 96.378,-8.646 141.732,0 v 0 c 45.355,8.645 116.221,7.937 158.74,15.024 v 0 c 42.52,7.086 58.111,12.756 80.788,14.173 v 0 c 22.677,1.417 43.459,-9.204 43.459,-9.204 v 0 c 0,0 37.701,-15.59 37.701,65.197 v 0 c 0,80.788 5.631,153.771 -3.749,248.731 v 0 c -9.38,94.96 58.174,197.726 -76.471,197.726 v 0 c -134.646,0 -317.003,-13.909 -453.066,-13.909 v 0 c -136.063,0 -133.422,22.413 -171.974,22.413 v 0 z" />
    </clipPath>
    <clipPath
       clipPathUnits="userSpaceOnUse"
       id="clipPath89">
      <path
         d="M 0,0 H 841.89 V 595.276 H 0 Z"
         id="path87"
         inkscape:connector-curvature="0" />
    </clipPath>
    <clipPath
       clipPathUnits="userSpaceOnUse"
       id="clipPath99">
      <path
         d="M 0,595.276 H 841.89 V 0 H 0 Z"
         id="path97-3"
         inkscape:connector-curvature="0" />
    </clipPath>
    <clipPath
       clipPathUnits="userSpaceOnUse"
       id="clipPath107">
      <path
         d="M -15.1732,610.449 H 857.063 V -15.1732 H -15.1732 Z"
         id="path105-5"
         inkscape:connector-curvature="0" />
    </clipPath>
    <clipPath
       clipPathUnits="userSpaceOnUse"
       id="clipPath111">
      <path
         d="M -14.175,-14.173 V 609.449 H 856.064 V -14.173 Z"
         id="path109-6"
         inkscape:connector-curvature="0" />
    </clipPath>
    <clipPath
       clipPathUnits="userSpaceOnUse"
       id="clipPath133">
      <path
         d="M 0,0 H 841.89 V 595.276 H 0 Z"
         id="path131-2"
         inkscape:connector-curvature="0" />
    </clipPath>
    <clipPath
       clipPathUnits="userSpaceOnUse"
       id="clipPath149">
      <path
         d="M 0,0 H 841.89 V 595.276 H 0 Z"
         id="path147-9"
         inkscape:connector-curvature="0" />
    </clipPath>
    <clipPath
       clipPathUnits="userSpaceOnUse"
       id="clipPath157">
      <path
         d="M 316.466,567.587 H 944.7 V -15.1732 H 316.466 Z"
         id="path155-1"
         inkscape:connector-curvature="0" />
    </clipPath>
    <clipPath
       clipPathUnits="userSpaceOnUse"
       id="clipPath161">
      <path
         d="M 317.466,-0.838 H 842.695 V 566.587 H 317.466 Z"
         id="path159-2"
         inkscape:connector-curvature="0" />
    </clipPath>
    <clipPath
       clipPathUnits="userSpaceOnUse"
       id="clipPath389">
      <path
         d="M 0,0 H 841.89 V 595.276 H 0 Z"
         id="path387"
         inkscape:connector-curvature="0" />
    </clipPath>
    <clipPath
       clipPathUnits="userSpaceOnUse"
       id="clipPath399">
      <path
         d="M 0,595.276 H 841.89 V 0 H 0 Z"
         id="path397"
         inkscape:connector-curvature="0" />
    </clipPath>
    <clipPath
       clipPathUnits="userSpaceOnUse"
       id="clipPath407">
      <path
         d="M -15.1732,610.449 H 857.063 V -15.1732 H -15.1732 Z"
         id="path405"
         inkscape:connector-curvature="0" />
    </clipPath>
    <clipPath
       clipPathUnits="userSpaceOnUse"
       id="clipPath411">
      <path
         d="M -14.175,-14.173 V 609.449 H 856.064 V -14.173 Z"
         id="path409"
         inkscape:connector-curvature="0" />
    </clipPath>
    <clipPath
       clipPathUnits="userSpaceOnUse"
       id="clipPath433">
      <path
         d="M 0,0 H 841.89 V 595.276 H 0 Z"
         id="path431"
         inkscape:connector-curvature="0" />
    </clipPath>
    <clipPath
       clipPathUnits="userSpaceOnUse"
       id="clipPath583">
      <path
         d="M 574.961,148.769 585.762,11.521 814.509,29.524 803.707,166.772 Z"
         id="path581"
         inkscape:connector-curvature="0" />
    </clipPath>
    <clipPath
       clipPathUnits="userSpaceOnUse"
       id="clipPath591">
      <path
         d="M 574.09,167.642 H 815.38 V 10.6503 H 574.09 Z"
         id="path589"
         inkscape:connector-curvature="0" />
    </clipPath>
    <clipPath
       clipPathUnits="userSpaceOnUse"
       id="clipPath595">
      <path
         d="M 574.961,148.769 585.762,11.521 814.509,29.524 803.707,166.772 Z"
         id="path593"
         inkscape:connector-curvature="0" />
    </clipPath>
    <clipPath
       clipPathUnits="userSpaceOnUse"
       id="clipPath599">
      <path
         d="M 559.465,179.979 H 827.717 V -1.86713 H 559.465 Z"
         id="path597"
         inkscape:connector-curvature="0" />
    </clipPath>
    <clipPath
       clipPathUnits="userSpaceOnUse"
       id="clipPath603">
      <path
         d="M 603.479,162.522 561.515,144.135 569.21,46.361 589.465,0.303 785.398,15.725 825.713,33.39 817.49,137.867 799.851,177.978 Z"
         id="path601"
         inkscape:connector-curvature="0" />
    </clipPath>
    <clipPath
       clipPathUnits="userSpaceOnUse"
       id="clipPath607">
      <path
         d="m 709.429,167.856 h 102.87 V 83.1783 h -102.87 z"
         id="path605"
         inkscape:connector-curvature="0" />
    </clipPath>
    <clipPath
       clipPathUnits="userSpaceOnUse"
       id="clipPath611">
      <path
         d="m 715.633,92.66 89.288,-1.558 1.174,67.272 -89.288,1.558 z"
         id="path609"
         inkscape:connector-curvature="0" />
    </clipPath>
    <clipPath
       clipPathUnits="userSpaceOnUse"
       id="clipPath615">
      <path
         d="M 574.961,148.769 585.762,11.521 814.509,29.524 803.707,166.772 Z"
         id="path613"
         inkscape:connector-curvature="0" />
    </clipPath>
    <clipPath
       clipPathUnits="userSpaceOnUse"
       id="clipPath877">
      <path
         d="M 442.772,102.902 H 678.047 V 244.067 H 442.772 Z"
         id="path875"
         inkscape:connector-curvature="0" />
    </clipPath>
    <clipPath
       clipPathUnits="userSpaceOnUse"
       id="clipPath885">
      <path
         d="M 441.942,244.896 H 678.878 V 102.072 H 441.942 Z"
         id="path883"
         inkscape:connector-curvature="0" />
    </clipPath>
    <clipPath
       clipPathUnits="userSpaceOnUse"
       id="clipPath889">
      <path
         d="M 442.772,102.902 H 678.047 V 244.067 H 442.772 Z"
         id="path887"
         inkscape:connector-curvature="0" />
    </clipPath>
    <clipPath
       clipPathUnits="userSpaceOnUse"
       id="clipPath893">
      <path
         d="M 442.772,102.902 H 678.047 V 244.067 H 442.772 Z"
         id="path891"
         inkscape:connector-curvature="0" />
    </clipPath>
    <clipPath
       clipPathUnits="userSpaceOnUse"
       id="clipPath897">
      <path
         d="m 488.215,153.451 h 29.946 V 129.35 h -29.946 z"
         id="path895"
         inkscape:connector-curvature="0" />
    </clipPath>
    <clipPath
       clipPathUnits="userSpaceOnUse"
       id="clipPath901">
      <path
         d="m 489.12,150.019 1.904,-19.763 26.231,2.525 -1.902,19.764 z"
         id="path899"
         inkscape:connector-curvature="0" />
    </clipPath>
    <clipPath
       clipPathUnits="userSpaceOnUse"
       id="clipPath607-3">
      <path
         d="m 709.429,167.856 h 102.87 V 83.1783 h -102.87 z"
         id="path605-6"
         inkscape:connector-curvature="0" />
    </clipPath>
    <clipPath
       clipPathUnits="userSpaceOnUse"
       id="clipPath611-7">
      <path
         d="m 715.633,92.66 89.288,-1.558 1.174,67.272 -89.288,1.558 z"
         id="path609-5"
         inkscape:connector-curvature="0" />
    </clipPath>
    <clipPath
       clipPathUnits="userSpaceOnUse"
       id="clipPath1516">
      <path
         d="M 0,595.276 H 841.89 V 0 H 0 Z"
         id="path1514"
         inkscape:connector-curvature="0" />
    </clipPath>
    <clipPath
       clipPathUnits="userSpaceOnUse"
       id="clipPath1532">
      <path
         d="M 29.778,265.039 H 408.174 V 595.275 H 29.778 Z"
         id="path1530"
         inkscape:connector-curvature="0" />
    </clipPath>
    <clipPath
       clipPathUnits="userSpaceOnUse"
       id="clipPath1540">
      <path
         d="M -35.4971,717.884 H 861.643 V 83.023 H -35.4971 Z"
         id="path1538"
         inkscape:connector-curvature="0" />
    </clipPath>
    <clipPath
       clipPathUnits="userSpaceOnUse"
       id="clipPath1558">
      <path
         d="M 0,0 H 841.89 V 595.276 H 0 Z"
         id="path1556"
         inkscape:connector-curvature="0" />
    </clipPath>
    <clipPath
       clipPathUnits="userSpaceOnUse"
       id="clipPath1566">
      <path
         d="M -51.0186,413.853 H 465.074 V -103.75 H -51.0186 Z"
         id="path1564"
         inkscape:connector-curvature="0" />
    </clipPath>
    <clipPath
       clipPathUnits="userSpaceOnUse"
       id="clipPath1570">
      <path
         d="M -49.606,175.727 200.765,-102.338 463.662,134.376 213.291,412.441 Z"
         id="path1568"
         inkscape:connector-curvature="0" />
    </clipPath>
    <clipPath
       clipPathUnits="userSpaceOnUse"
       id="clipPath1592">
      <path
         d="M 353.331,617.535 H 744.528 V 275.873 H 353.331 Z"
         id="path1590"
         inkscape:connector-curvature="0" />
    </clipPath>
    <clipPath
       clipPathUnits="userSpaceOnUse"
       id="clipPath1596">
      <path
         d="M 354.331,276.872 H 743.528 V 596.475 H 354.331 Z"
         id="path1594"
         inkscape:connector-curvature="0" />
    </clipPath>
    <clipPath
       clipPathUnits="userSpaceOnUse"
       id="clipPath1618">
      <path
         d="M 428.449,384.48 H 836.053 V -1 H 428.449 Z"
         id="path1616"
         inkscape:connector-curvature="0" />
    </clipPath>
    <clipPath
       clipPathUnits="userSpaceOnUse"
       id="clipPath1622">
      <path
         d="M 429.448,0 H 835.053 V 383.48 H 429.448 Z"
         id="path1620"
         inkscape:connector-curvature="0" />
    </clipPath>
    <clipPath
       clipPathUnits="userSpaceOnUse"
       id="clipPath1756">
      <path
         d="M 0,595.276 H 841.89 V 0 H 0 Z"
         id="path1754"
         inkscape:connector-curvature="0" />
    </clipPath>
    <clipPath
       clipPathUnits="userSpaceOnUse"
       id="clipPath1772">
      <path
         d="M -0.001,0 0.001,595.275 841.89,595.276 841.888,0.001 Z"
         id="path1770"
         inkscape:connector-curvature="0" />
    </clipPath>
    <clipPath
       clipPathUnits="userSpaceOnUse"
       id="clipPath1829">
      <path
         d="M 0,0 H 841.89 V 595.276 H 0 Z"
         id="path1827"
         inkscape:connector-curvature="0" />
    </clipPath>
    <clipPath
       clipPathUnits="userSpaceOnUse"
       id="clipPath1839">
      <path
         d="M 0,595.276 H 841.89 V 0 H 0 Z"
         id="path1837"
         inkscape:connector-curvature="0" />
    </clipPath>
    <clipPath
       clipPathUnits="userSpaceOnUse"
       id="clipPath1847">
      <path
         d="M -15.1732,610.449 H 857.063 V -15.1732 H -15.1732 Z"
         id="path1845"
         inkscape:connector-curvature="0" />
    </clipPath>
    <clipPath
       clipPathUnits="userSpaceOnUse"
       id="clipPath1851">
      <path
         d="M -14.175,-14.173 V 609.449 H 856.064 V -14.173 Z"
         id="path1849"
         inkscape:connector-curvature="0" />
    </clipPath>
    <clipPath
       clipPathUnits="userSpaceOnUse"
       id="clipPath1873">
      <path
         d="M 0,0 H 841.89 V 595.276 H 0 Z"
         id="path1871"
         inkscape:connector-curvature="0" />
    </clipPath>
    <clipPath
       clipPathUnits="userSpaceOnUse"
       id="clipPath2009">
      <path
         d="M 0,0 H 841.89 V 595.276 H 0 Z"
         id="path2007"
         inkscape:connector-curvature="0" />
    </clipPath>
    <clipPath
       clipPathUnits="userSpaceOnUse"
       id="clipPath2017">
      <path
         d="M 470.341,283.353 H 789.123 V 30.3482 H 470.341 Z"
         id="path2015"
         inkscape:connector-curvature="0" />
    </clipPath>
    <clipPath
       clipPathUnits="userSpaceOnUse"
       id="clipPath2021">
      <path
         d="M 471.432,59.863 766.616,31.44 788.032,253.839 492.846,282.262 Z"
         id="path2019"
         inkscape:connector-curvature="0" />
    </clipPath>
    <clipPath
       clipPathUnits="userSpaceOnUse"
       id="clipPath2009-3">
      <path
         d="M 0,0 H 841.89 V 595.276 H 0 Z"
         id="path2007-5"
         inkscape:connector-curvature="0" />
    </clipPath>
    <clipPath
       clipPathUnits="userSpaceOnUse"
       id="clipPath2017-6">
      <path
         d="M 470.341,283.353 H 789.123 V 30.3482 H 470.341 Z"
         id="path2015-2"
         inkscape:connector-curvature="0" />
    </clipPath>
    <clipPath
       clipPathUnits="userSpaceOnUse"
       id="clipPath2021-9">
      <path
         d="M 471.432,59.863 766.616,31.44 788.032,253.839 492.846,282.262 Z"
         id="path2019-1"
         inkscape:connector-curvature="0" />
    </clipPath>
    <clipPath
       clipPathUnits="userSpaceOnUse"
       id="clipPath2009-3-2">
      <path
         d="M 0,0 H 841.89 V 595.276 H 0 Z"
         id="path2007-5-7"
         inkscape:connector-curvature="0" />
    </clipPath>
    <clipPath
       clipPathUnits="userSpaceOnUse"
       id="clipPath2017-6-0">
      <path
         d="M 470.341,283.353 H 789.123 V 30.3482 H 470.341 Z"
         id="path2015-2-9"
         inkscape:connector-curvature="0" />
    </clipPath>
    <clipPath
       clipPathUnits="userSpaceOnUse"
       id="clipPath2021-9-3">
      <path
         d="M 471.432,59.863 766.616,31.44 788.032,253.839 492.846,282.262 Z"
         id="path2019-1-6"
         inkscape:connector-curvature="0" />
    </clipPath>
    <clipPath
       id="clip1">
      <path
         d="m 304,371 h 37 v 41.32812 h -37 z m 0,0"
         id="path3732"
         inkscape:connector-curvature="0" />
    </clipPath>
    <clipPath
       id="clip2">
      <path
         d="m 47,381 h 53 v 31.32812 H 47 Z m 0,0"
         id="path3735"
         inkscape:connector-curvature="0" />
    </clipPath>
    <clipPath
       id="clip3">
      <path
         d="m 240,389 h 24 v 23.32812 h -24 z m 0,0"
         id="path3738"
         inkscape:connector-curvature="0" />
    </clipPath>
    <clipPath
       id="clip4">
      <path
         d="m 247,389 h 17 v 23.32812 h -17 z m 0,0"
         id="path3741"
         inkscape:connector-curvature="0" />
    </clipPath>
    <clipPath
       id="clip5">
      <path
         d="m 163,44 h 26 v 15 h -26 z m 0,0"
         id="path3744"
         inkscape:connector-curvature="0" />
    </clipPath>
    <clipPath
       id="clip6">
      <path
         d="m 250.71094,117.40625 c 0,5.45313 -4.42578,9.87891 -9.87891,9.87891 h -81.66406 c -5.45703,0 -9.87891,-4.42578 -9.87891,-9.87891 V 54.550781 c 0,-5.453125 4.42188,-9.875 9.87891,-9.875 h 81.66406 c 5.45313,0 9.87891,4.421875 9.87891,9.875 z m 0,0"
         id="path3747"
         inkscape:connector-curvature="0" />
    </clipPath>
    <clipPath
       id="clip7">
      <path
         d="m 163,58 h 26 v 22 h -26 z m 0,0"
         id="path3750"
         inkscape:connector-curvature="0" />
    </clipPath>
    <clipPath
       id="clip8">
      <path
         d="m 250.71094,117.40625 c 0,5.45313 -4.42578,9.87891 -9.87891,9.87891 h -81.66406 c -5.45703,0 -9.87891,-4.42578 -9.87891,-9.87891 V 54.550781 c 0,-5.453125 4.42188,-9.875 9.87891,-9.875 h 81.66406 c 5.45313,0 9.87891,4.421875 9.87891,9.875 z m 0,0"
         id="path3753"
         inkscape:connector-curvature="0" />
    </clipPath>
    <clipPath
       id="clip9">
      <path
         d="m 163,79 h 26 v 22 h -26 z m 0,0"
         id="path3756"
         inkscape:connector-curvature="0" />
    </clipPath>
    <clipPath
       id="clip10">
      <path
         d="m 250.71094,117.40625 c 0,5.45313 -4.42578,9.87891 -9.87891,9.87891 h -81.66406 c -5.45703,0 -9.87891,-4.42578 -9.87891,-9.87891 V 54.550781 c 0,-5.453125 4.42188,-9.875 9.87891,-9.875 h 81.66406 c 5.45313,0 9.87891,4.421875 9.87891,9.875 z m 0,0"
         id="path3759"
         inkscape:connector-curvature="0" />
    </clipPath>
    <clipPath
       id="clip11">
      <path
         d="m 149,48 h 22 v 22 h -22 z m 0,0"
         id="path3762"
         inkscape:connector-curvature="0" />
    </clipPath>
    <clipPath
       id="clip12">
      <path
         d="m 250.71094,117.40625 c 0,5.45313 -4.42578,9.87891 -9.87891,9.87891 h -81.66406 c -5.45703,0 -9.87891,-4.42578 -9.87891,-9.87891 V 54.550781 c 0,-5.453125 4.42188,-9.875 9.87891,-9.875 h 81.66406 c 5.45313,0 9.87891,4.421875 9.87891,9.875 z m 0,0"
         id="path3765"
         inkscape:connector-curvature="0" />
    </clipPath>
    <clipPath
       id="clip13">
      <path
         d="m 149,69 h 22 v 22 h -22 z m 0,0"
         id="path3768"
         inkscape:connector-curvature="0" />
    </clipPath>
    <clipPath
       id="clip14">
      <path
         d="m 250.71094,117.40625 c 0,5.45313 -4.42578,9.87891 -9.87891,9.87891 h -81.66406 c -5.45703,0 -9.87891,-4.42578 -9.87891,-9.87891 V 54.550781 c 0,-5.453125 4.42188,-9.875 9.87891,-9.875 h 81.66406 c 5.45313,0 9.87891,4.421875 9.87891,9.875 z m 0,0"
         id="path3771"
         inkscape:connector-curvature="0" />
    </clipPath>
    <clipPath
       id="clip15">
      <path
         d="m 182,48 h 26 v 22 h -26 z m 0,0"
         id="path3774"
         inkscape:connector-curvature="0" />
    </clipPath>
    <clipPath
       id="clip16">
      <path
         d="m 250.71094,117.40625 c 0,5.45313 -4.42578,9.87891 -9.87891,9.87891 h -81.66406 c -5.45703,0 -9.87891,-4.42578 -9.87891,-9.87891 V 54.550781 c 0,-5.453125 4.42188,-9.875 9.87891,-9.875 h 81.66406 c 5.45313,0 9.87891,4.421875 9.87891,9.875 z m 0,0"
         id="path3777"
         inkscape:connector-curvature="0" />
    </clipPath>
    <clipPath
       id="clip17">
      <path
         d="m 182,69 h 26 v 22 h -26 z m 0,0"
         id="path3780"
         inkscape:connector-curvature="0" />
    </clipPath>
    <clipPath
       id="clip18">
      <path
         d="m 250.71094,117.40625 c 0,5.45313 -4.42578,9.87891 -9.87891,9.87891 h -81.66406 c -5.45703,0 -9.87891,-4.42578 -9.87891,-9.87891 V 54.550781 c 0,-5.453125 4.42188,-9.875 9.87891,-9.875 h 81.66406 c 5.45313,0 9.87891,4.421875 9.87891,9.875 z m 0,0"
         id="path3783"
         inkscape:connector-curvature="0" />
    </clipPath>
    <clipPath
       id="clip19">
      <path
         d="m 166,82 h 20 v 17 h -20 z m 0,0"
         id="path3786"
         inkscape:connector-curvature="0" />
    </clipPath>
    <clipPath
       id="clip20">
      <path
         d="m 250.71094,117.40625 c 0,5.45313 -4.42578,9.87891 -9.87891,9.87891 h -81.66406 c -5.45703,0 -9.87891,-4.42578 -9.87891,-9.87891 V 54.550781 c 0,-5.453125 4.42188,-9.875 9.87891,-9.875 h 81.66406 c 5.45313,0 9.87891,4.421875 9.87891,9.875 z m 0,0"
         id="path3789"
         inkscape:connector-curvature="0" />
    </clipPath>
    <clipPath
       id="clip21">
      <path
         d="m 166,82 h 8 v 11 h -8 z m 0,0"
         id="path3792"
         inkscape:connector-curvature="0" />
    </clipPath>
    <clipPath
       id="clip22">
      <path
         d="m 250.71094,117.40625 c 0,5.45313 -4.42578,9.87891 -9.87891,9.87891 h -81.66406 c -5.45703,0 -9.87891,-4.42578 -9.87891,-9.87891 V 54.550781 c 0,-5.453125 4.42188,-9.875 9.87891,-9.875 h 81.66406 c 5.45313,0 9.87891,4.421875 9.87891,9.875 z m 0,0"
         id="path3795"
         inkscape:connector-curvature="0" />
    </clipPath>
    <clipPath
       id="clip23">
      <path
         d="m 185,71 h 20 v 17 h -20 z m 0,0"
         id="path3798"
         inkscape:connector-curvature="0" />
    </clipPath>
    <clipPath
       id="clip24">
      <path
         d="m 250.71094,117.40625 c 0,5.45313 -4.42578,9.87891 -9.87891,9.87891 h -81.66406 c -5.45703,0 -9.87891,-4.42578 -9.87891,-9.87891 V 54.550781 c 0,-5.453125 4.42188,-9.875 9.87891,-9.875 h 81.66406 c 5.45313,0 9.87891,4.421875 9.87891,9.875 z m 0,0"
         id="path3801"
         inkscape:connector-curvature="0" />
    </clipPath>
    <clipPath
       id="clip25">
      <path
         d="m 185,71 h 8 v 12 h -8 z m 0,0"
         id="path3804"
         inkscape:connector-curvature="0" />
    </clipPath>
    <clipPath
       id="clip26">
      <path
         d="m 250.71094,117.40625 c 0,5.45313 -4.42578,9.87891 -9.87891,9.87891 h -81.66406 c -5.45703,0 -9.87891,-4.42578 -9.87891,-9.87891 V 54.550781 c 0,-5.453125 4.42188,-9.875 9.87891,-9.875 h 81.66406 c 5.45313,0 9.87891,4.421875 9.87891,9.875 z m 0,0"
         id="path3807"
         inkscape:connector-curvature="0" />
    </clipPath>
    <clipPath
       id="clip27">
      <path
         d="m 149,71 h 19 v 17 h -19 z m 0,0"
         id="path3810"
         inkscape:connector-curvature="0" />
    </clipPath>
    <clipPath
       id="clip28">
      <path
         d="m 250.71094,117.40625 c 0,5.45313 -4.42578,9.87891 -9.87891,9.87891 h -81.66406 c -5.45703,0 -9.87891,-4.42578 -9.87891,-9.87891 V 54.550781 c 0,-5.453125 4.42188,-9.875 9.87891,-9.875 h 81.66406 c 5.45313,0 9.87891,4.421875 9.87891,9.875 z m 0,0"
         id="path3813"
         inkscape:connector-curvature="0" />
    </clipPath>
    <clipPath
       id="clip29">
      <path
         d="m 149,71 h 7 v 12 h -7 z m 0,0"
         id="path3816"
         inkscape:connector-curvature="0" />
    </clipPath>
    <clipPath
       id="clip30">
      <path
         d="m 250.71094,117.40625 c 0,5.45313 -4.42578,9.87891 -9.87891,9.87891 h -81.66406 c -5.45703,0 -9.87891,-4.42578 -9.87891,-9.87891 V 54.550781 c 0,-5.453125 4.42188,-9.875 9.87891,-9.875 h 81.66406 c 5.45313,0 9.87891,4.421875 9.87891,9.875 z m 0,0"
         id="path3819"
         inkscape:connector-curvature="0" />
    </clipPath>
    <clipPath
       id="clip31">
      <path
         d="m 166,61 h 20 v 17 h -20 z m 0,0"
         id="path3822"
         inkscape:connector-curvature="0" />
    </clipPath>
    <clipPath
       id="clip32">
      <path
         d="m 250.71094,117.40625 c 0,5.45313 -4.42578,9.87891 -9.87891,9.87891 h -81.66406 c -5.45703,0 -9.87891,-4.42578 -9.87891,-9.87891 V 54.550781 c 0,-5.453125 4.42188,-9.875 9.87891,-9.875 h 81.66406 c 5.45313,0 9.87891,4.421875 9.87891,9.875 z m 0,0"
         id="path3825"
         inkscape:connector-curvature="0" />
    </clipPath>
    <clipPath
       id="clip33">
      <path
         d="m 166,61 h 8 v 11 h -8 z m 0,0"
         id="path3828"
         inkscape:connector-curvature="0" />
    </clipPath>
    <clipPath
       id="clip34">
      <path
         d="m 250.71094,117.40625 c 0,5.45313 -4.42578,9.87891 -9.87891,9.87891 h -81.66406 c -5.45703,0 -9.87891,-4.42578 -9.87891,-9.87891 V 54.550781 c 0,-5.453125 4.42188,-9.875 9.87891,-9.875 h 81.66406 c 5.45313,0 9.87891,4.421875 9.87891,9.875 z m 0,0"
         id="path3831"
         inkscape:connector-curvature="0" />
    </clipPath>
    <clipPath
       id="clip35">
      <path
         d="m 185,50 h 20 v 17 h -20 z m 0,0"
         id="path3834"
         inkscape:connector-curvature="0" />
    </clipPath>
    <clipPath
       id="clip36">
      <path
         d="m 250.71094,117.40625 c 0,5.45313 -4.42578,9.87891 -9.87891,9.87891 h -81.66406 c -5.45703,0 -9.87891,-4.42578 -9.87891,-9.87891 V 54.550781 c 0,-5.453125 4.42188,-9.875 9.87891,-9.875 h 81.66406 c 5.45313,0 9.87891,4.421875 9.87891,9.875 z m 0,0"
         id="path3837"
         inkscape:connector-curvature="0" />
    </clipPath>
    <clipPath
       id="clip37">
      <path
         d="m 185,50 h 8 v 11 h -8 z m 0,0"
         id="path3840"
         inkscape:connector-curvature="0" />
    </clipPath>
    <clipPath
       id="clip38">
      <path
         d="m 250.71094,117.40625 c 0,5.45313 -4.42578,9.87891 -9.87891,9.87891 h -81.66406 c -5.45703,0 -9.87891,-4.42578 -9.87891,-9.87891 V 54.550781 c 0,-5.453125 4.42188,-9.875 9.87891,-9.875 h 81.66406 c 5.45313,0 9.87891,4.421875 9.87891,9.875 z m 0,0"
         id="path3843"
         inkscape:connector-curvature="0" />
    </clipPath>
    <clipPath
       id="clip39">
      <path
         d="m 149,50 h 19 v 17 h -19 z m 0,0"
         id="path3846"
         inkscape:connector-curvature="0" />
    </clipPath>
    <clipPath
       id="clip40">
      <path
         d="m 250.71094,117.40625 c 0,5.45313 -4.42578,9.87891 -9.87891,9.87891 h -81.66406 c -5.45703,0 -9.87891,-4.42578 -9.87891,-9.87891 V 54.550781 c 0,-5.453125 4.42188,-9.875 9.87891,-9.875 h 81.66406 c 5.45313,0 9.87891,4.421875 9.87891,9.875 z m 0,0"
         id="path3849"
         inkscape:connector-curvature="0" />
    </clipPath>
    <clipPath
       id="clip41">
      <path
         d="m 149,50 h 7 v 11 h -7 z m 0,0"
         id="path3852"
         inkscape:connector-curvature="0" />
    </clipPath>
    <clipPath
       id="clip42">
      <path
         d="m 250.71094,117.40625 c 0,5.45313 -4.42578,9.87891 -9.87891,9.87891 h -81.66406 c -5.45703,0 -9.87891,-4.42578 -9.87891,-9.87891 V 54.550781 c 0,-5.453125 4.42188,-9.875 9.87891,-9.875 h 81.66406 c 5.45313,0 9.87891,4.421875 9.87891,9.875 z m 0,0"
         id="path3855"
         inkscape:connector-curvature="0" />
    </clipPath>
    <clipPath
       id="clip43">
      <path
         d="m 166,44 h 20 v 13 h -20 z m 0,0"
         id="path3858"
         inkscape:connector-curvature="0" />
    </clipPath>
    <clipPath
       id="clip44">
      <path
         d="m 250.71094,117.40625 c 0,5.45313 -4.42578,9.87891 -9.87891,9.87891 h -81.66406 c -5.45703,0 -9.87891,-4.42578 -9.87891,-9.87891 V 54.550781 c 0,-5.453125 4.42188,-9.875 9.87891,-9.875 h 81.66406 c 5.45313,0 9.87891,4.421875 9.87891,9.875 z m 0,0"
         id="path3861"
         inkscape:connector-curvature="0" />
    </clipPath>
    <clipPath
       id="clip45">
      <path
         d="m 166,44 h 9 v 7 h -9 z m 0,0"
         id="path3864"
         inkscape:connector-curvature="0" />
    </clipPath>
    <clipPath
       id="clip46">
      <path
         d="m 250.71094,117.40625 c 0,5.45313 -4.42578,9.87891 -9.87891,9.87891 h -81.66406 c -5.45703,0 -9.87891,-4.42578 -9.87891,-9.87891 V 54.550781 c 0,-5.453125 4.42188,-9.875 9.87891,-9.875 h 81.66406 c 5.45313,0 9.87891,4.421875 9.87891,9.875 z m 0,0"
         id="path3867"
         inkscape:connector-curvature="0" />
    </clipPath>
    <clipPath
       id="clip47">
      <path
         d="m 219,48 h 26 v 22 h -26 z m 0,0"
         id="path3870"
         inkscape:connector-curvature="0" />
    </clipPath>
    <clipPath
       id="clip48">
      <path
         d="m 250.71094,117.40625 c 0,5.45313 -4.42578,9.87891 -9.87891,9.87891 h -81.66406 c -5.45703,0 -9.87891,-4.42578 -9.87891,-9.87891 V 54.550781 c 0,-5.453125 4.42188,-9.875 9.87891,-9.875 h 81.66406 c 5.45313,0 9.87891,4.421875 9.87891,9.875 z m 0,0"
         id="path3873"
         inkscape:connector-curvature="0" />
    </clipPath>
    <clipPath
       id="clip49">
      <path
         d="m 219,69 h 26 v 22 h -26 z m 0,0"
         id="path3876"
         inkscape:connector-curvature="0" />
    </clipPath>
    <clipPath
       id="clip50">
      <path
         d="m 250.71094,117.40625 c 0,5.45313 -4.42578,9.87891 -9.87891,9.87891 h -81.66406 c -5.45703,0 -9.87891,-4.42578 -9.87891,-9.87891 V 54.550781 c 0,-5.453125 4.42188,-9.875 9.87891,-9.875 h 81.66406 c 5.45313,0 9.87891,4.421875 9.87891,9.875 z m 0,0"
         id="path3879"
         inkscape:connector-curvature="0" />
    </clipPath>
    <clipPath
       id="clip51">
      <path
         d="m 200,44 h 26 v 15 h -26 z m 0,0"
         id="path3882"
         inkscape:connector-curvature="0" />
    </clipPath>
    <clipPath
       id="clip52">
      <path
         d="m 250.71094,117.40625 c 0,5.45313 -4.42578,9.87891 -9.87891,9.87891 h -81.66406 c -5.45703,0 -9.87891,-4.42578 -9.87891,-9.87891 V 54.550781 c 0,-5.453125 4.42188,-9.875 9.87891,-9.875 h 81.66406 c 5.45313,0 9.87891,4.421875 9.87891,9.875 z m 0,0"
         id="path3885"
         inkscape:connector-curvature="0" />
    </clipPath>
    <clipPath
       id="clip53">
      <path
         d="m 200,58 h 26 v 23 h -26 z m 0,0"
         id="path3888"
         inkscape:connector-curvature="0" />
    </clipPath>
    <clipPath
       id="clip54">
      <path
         d="m 250.71094,117.40625 c 0,5.45313 -4.42578,9.87891 -9.87891,9.87891 h -81.66406 c -5.45703,0 -9.87891,-4.42578 -9.87891,-9.87891 V 54.550781 c 0,-5.453125 4.42188,-9.875 9.87891,-9.875 h 81.66406 c 5.45313,0 9.87891,4.421875 9.87891,9.875 z m 0,0"
         id="path3891"
         inkscape:connector-curvature="0" />
    </clipPath>
    <clipPath
       id="clip55">
      <path
         d="m 238,44 h 13 v 15 h -13 z m 0,0"
         id="path3894"
         inkscape:connector-curvature="0" />
    </clipPath>
    <clipPath
       id="clip56">
      <path
         d="m 250.71094,117.40625 c 0,5.45313 -4.42578,9.87891 -9.87891,9.87891 h -81.66406 c -5.45703,0 -9.87891,-4.42578 -9.87891,-9.87891 V 54.550781 c 0,-5.453125 4.42188,-9.875 9.87891,-9.875 h 81.66406 c 5.45313,0 9.87891,4.421875 9.87891,9.875 z m 0,0"
         id="path3897"
         inkscape:connector-curvature="0" />
    </clipPath>
    <clipPath
       id="clip57">
      <path
         d="m 237,58 h 14 v 23 h -14 z m 0,0"
         id="path3900"
         inkscape:connector-curvature="0" />
    </clipPath>
    <clipPath
       id="clip58">
      <path
         d="m 250.71094,117.40625 c 0,5.45313 -4.42578,9.87891 -9.87891,9.87891 h -81.66406 c -5.45703,0 -9.87891,-4.42578 -9.87891,-9.87891 V 54.550781 c 0,-5.453125 4.42188,-9.875 9.87891,-9.875 h 81.66406 c 5.45313,0 9.87891,4.421875 9.87891,9.875 z m 0,0"
         id="path3903"
         inkscape:connector-curvature="0" />
    </clipPath>
    <clipPath
       id="clip59">
      <path
         d="m 222,71 h 20 v 17 h -20 z m 0,0"
         id="path3906"
         inkscape:connector-curvature="0" />
    </clipPath>
    <clipPath
       id="clip60">
      <path
         d="m 250.71094,117.40625 c 0,5.45313 -4.42578,9.87891 -9.87891,9.87891 h -81.66406 c -5.45703,0 -9.87891,-4.42578 -9.87891,-9.87891 V 54.550781 c 0,-5.453125 4.42188,-9.875 9.87891,-9.875 h 81.66406 c 5.45313,0 9.87891,4.421875 9.87891,9.875 z m 0,0"
         id="path3909"
         inkscape:connector-curvature="0" />
    </clipPath>
    <clipPath
       id="clip61">
      <path
         d="m 222,71 h 8 v 12 h -8 z m 0,0"
         id="path3912"
         inkscape:connector-curvature="0" />
    </clipPath>
    <clipPath
       id="clip62">
      <path
         d="m 250.71094,117.40625 c 0,5.45313 -4.42578,9.87891 -9.87891,9.87891 h -81.66406 c -5.45703,0 -9.87891,-4.42578 -9.87891,-9.87891 V 54.550781 c 0,-5.453125 4.42188,-9.875 9.87891,-9.875 h 81.66406 c 5.45313,0 9.87891,4.421875 9.87891,9.875 z m 0,0"
         id="path3915"
         inkscape:connector-curvature="0" />
    </clipPath>
    <clipPath
       id="clip63">
      <path
         d="m 240,61 h 11 v 17 h -11 z m 0,0"
         id="path3918"
         inkscape:connector-curvature="0" />
    </clipPath>
    <clipPath
       id="clip64">
      <path
         d="m 250.71094,117.40625 c 0,5.45313 -4.42578,9.87891 -9.87891,9.87891 h -81.66406 c -5.45703,0 -9.87891,-4.42578 -9.87891,-9.87891 V 54.550781 c 0,-5.453125 4.42188,-9.875 9.87891,-9.875 h 81.66406 c 5.45313,0 9.87891,4.421875 9.87891,9.875 z m 0,0"
         id="path3921"
         inkscape:connector-curvature="0" />
    </clipPath>
    <clipPath
       id="clip65">
      <path
         d="m 240,61 h 9 v 11 h -9 z m 0,0"
         id="path3924"
         inkscape:connector-curvature="0" />
    </clipPath>
    <clipPath
       id="clip66">
      <path
         d="m 250.71094,117.40625 c 0,5.45313 -4.42578,9.87891 -9.87891,9.87891 h -81.66406 c -5.45703,0 -9.87891,-4.42578 -9.87891,-9.87891 V 54.550781 c 0,-5.453125 4.42188,-9.875 9.87891,-9.875 h 81.66406 c 5.45313,0 9.87891,4.421875 9.87891,9.875 z m 0,0"
         id="path3927"
         inkscape:connector-curvature="0" />
    </clipPath>
    <clipPath
       id="clip67">
      <path
         d="m 203,61 h 20 v 17 h -20 z m 0,0"
         id="path3930"
         inkscape:connector-curvature="0" />
    </clipPath>
    <clipPath
       id="clip68">
      <path
         d="m 250.71094,117.40625 c 0,5.45313 -4.42578,9.87891 -9.87891,9.87891 h -81.66406 c -5.45703,0 -9.87891,-4.42578 -9.87891,-9.87891 V 54.550781 c 0,-5.453125 4.42188,-9.875 9.87891,-9.875 h 81.66406 c 5.45313,0 9.87891,4.421875 9.87891,9.875 z m 0,0"
         id="path3933"
         inkscape:connector-curvature="0" />
    </clipPath>
    <clipPath
       id="clip69">
      <path
         d="m 203,61 h 9 v 11 h -9 z m 0,0"
         id="path3936"
         inkscape:connector-curvature="0" />
    </clipPath>
    <clipPath
       id="clip70">
      <path
         d="m 250.71094,117.40625 c 0,5.45313 -4.42578,9.87891 -9.87891,9.87891 h -81.66406 c -5.45703,0 -9.87891,-4.42578 -9.87891,-9.87891 V 54.550781 c 0,-5.453125 4.42188,-9.875 9.87891,-9.875 h 81.66406 c 5.45313,0 9.87891,4.421875 9.87891,9.875 z m 0,0"
         id="path3939"
         inkscape:connector-curvature="0" />
    </clipPath>
    <clipPath
       id="clip71">
      <path
         d="m 222,50 h 20 v 17 h -20 z m 0,0"
         id="path3942"
         inkscape:connector-curvature="0" />
    </clipPath>
    <clipPath
       id="clip72">
      <path
         d="m 250.71094,117.40625 c 0,5.45313 -4.42578,9.87891 -9.87891,9.87891 h -81.66406 c -5.45703,0 -9.87891,-4.42578 -9.87891,-9.87891 V 54.550781 c 0,-5.453125 4.42188,-9.875 9.87891,-9.875 h 81.66406 c 5.45313,0 9.87891,4.421875 9.87891,9.875 z m 0,0"
         id="path3945"
         inkscape:connector-curvature="0" />
    </clipPath>
    <clipPath
       id="clip73">
      <path
         d="m 222,50 h 8 v 12 h -8 z m 0,0"
         id="path3948"
         inkscape:connector-curvature="0" />
    </clipPath>
    <clipPath
       id="clip74">
      <path
         d="m 250.71094,117.40625 c 0,5.45313 -4.42578,9.87891 -9.87891,9.87891 h -81.66406 c -5.45703,0 -9.87891,-4.42578 -9.87891,-9.87891 V 54.550781 c 0,-5.453125 4.42188,-9.875 9.87891,-9.875 h 81.66406 c 5.45313,0 9.87891,4.421875 9.87891,9.875 z m 0,0"
         id="path3951"
         inkscape:connector-curvature="0" />
    </clipPath>
    <clipPath
       id="clip75">
      <path
         d="m 241,44 h 10 v 13 h -10 z m 0,0"
         id="path3954"
         inkscape:connector-curvature="0" />
    </clipPath>
    <clipPath
       id="clip76">
      <path
         d="m 250.71094,117.40625 c 0,5.45313 -4.42578,9.87891 -9.87891,9.87891 h -81.66406 c -5.45703,0 -9.87891,-4.42578 -9.87891,-9.87891 V 54.550781 c 0,-5.453125 4.42188,-9.875 9.87891,-9.875 h 81.66406 c 5.45313,0 9.87891,4.421875 9.87891,9.875 z m 0,0"
         id="path3957"
         inkscape:connector-curvature="0" />
    </clipPath>
    <clipPath
       id="clip77">
      <path
         d="m 241,44 h 8 v 7 h -8 z m 0,0"
         id="path3960"
         inkscape:connector-curvature="0" />
    </clipPath>
    <clipPath
       id="clip78">
      <path
         d="m 250.71094,117.40625 c 0,5.45313 -4.42578,9.87891 -9.87891,9.87891 h -81.66406 c -5.45703,0 -9.87891,-4.42578 -9.87891,-9.87891 V 54.550781 c 0,-5.453125 4.42188,-9.875 9.87891,-9.875 h 81.66406 c 5.45313,0 9.87891,4.421875 9.87891,9.875 z m 0,0"
         id="path3963"
         inkscape:connector-curvature="0" />
    </clipPath>
    <clipPath
       id="clip79">
      <path
         d="m 203,44 h 20 v 13 h -20 z m 0,0"
         id="path3966"
         inkscape:connector-curvature="0" />
    </clipPath>
    <clipPath
       id="clip80">
      <path
         d="m 250.71094,117.40625 c 0,5.45313 -4.42578,9.87891 -9.87891,9.87891 h -81.66406 c -5.45703,0 -9.87891,-4.42578 -9.87891,-9.87891 V 54.550781 c 0,-5.453125 4.42188,-9.875 9.87891,-9.875 h 81.66406 c 5.45313,0 9.87891,4.421875 9.87891,9.875 z m 0,0"
         id="path3969"
         inkscape:connector-curvature="0" />
    </clipPath>
    <clipPath
       id="clip81">
      <path
         d="m 203,44 h 9 v 7 h -9 z m 0,0"
         id="path3972"
         inkscape:connector-curvature="0" />
    </clipPath>
    <clipPath
       id="clip82">
      <path
         d="m 250.71094,117.40625 c 0,5.45313 -4.42578,9.87891 -9.87891,9.87891 h -81.66406 c -5.45703,0 -9.87891,-4.42578 -9.87891,-9.87891 V 54.550781 c 0,-5.453125 4.42188,-9.875 9.87891,-9.875 h 81.66406 c 5.45313,0 9.87891,4.421875 9.87891,9.875 z m 0,0"
         id="path3975"
         inkscape:connector-curvature="0" />
    </clipPath>
    <clipPath
       id="clip83">
      <path
         d="m 200,78 h 26 v 23 h -26 z m 0,0"
         id="path3978"
         inkscape:connector-curvature="0" />
    </clipPath>
    <clipPath
       id="clip84">
      <path
         d="m 250.71094,117.40625 c 0,5.45313 -4.42578,9.87891 -9.87891,9.87891 h -81.66406 c -5.45703,0 -9.87891,-4.42578 -9.87891,-9.87891 V 54.550781 c 0,-5.453125 4.42188,-9.875 9.87891,-9.875 h 81.66406 c 5.45313,0 9.87891,4.421875 9.87891,9.875 z m 0,0"
         id="path3981"
         inkscape:connector-curvature="0" />
    </clipPath>
    <clipPath
       id="clip85">
      <path
         d="m 200,100 h 26 v 22 h -26 z m 0,0"
         id="path3984"
         inkscape:connector-curvature="0" />
    </clipPath>
    <clipPath
       id="clip86">
      <path
         d="m 250.71094,117.40625 c 0,5.45313 -4.42578,9.87891 -9.87891,9.87891 h -81.66406 c -5.45703,0 -9.87891,-4.42578 -9.87891,-9.87891 V 54.550781 c 0,-5.453125 4.42188,-9.875 9.87891,-9.875 h 81.66406 c 5.45313,0 9.87891,4.421875 9.87891,9.875 z m 0,0"
         id="path3987"
         inkscape:connector-curvature="0" />
    </clipPath>
    <clipPath
       id="clip87">
      <path
         d="m 200,121 h 26 v 7 h -26 z m 0,0"
         id="path3990"
         inkscape:connector-curvature="0" />
    </clipPath>
    <clipPath
       id="clip88">
      <path
         d="m 250.71094,117.40625 c 0,5.45313 -4.42578,9.87891 -9.87891,9.87891 h -81.66406 c -5.45703,0 -9.87891,-4.42578 -9.87891,-9.87891 V 54.550781 c 0,-5.453125 4.42188,-9.875 9.87891,-9.875 h 81.66406 c 5.45313,0 9.87891,4.421875 9.87891,9.875 z m 0,0"
         id="path3993"
         inkscape:connector-curvature="0" />
    </clipPath>
    <clipPath
       id="clip89">
      <path
         d="m 182,89 h 26 v 22 h -26 z m 0,0"
         id="path3996"
         inkscape:connector-curvature="0" />
    </clipPath>
    <clipPath
       id="clip90">
      <path
         d="m 250.71094,117.40625 c 0,5.45313 -4.42578,9.87891 -9.87891,9.87891 h -81.66406 c -5.45703,0 -9.87891,-4.42578 -9.87891,-9.87891 V 54.550781 c 0,-5.453125 4.42188,-9.875 9.87891,-9.875 h 81.66406 c 5.45313,0 9.87891,4.421875 9.87891,9.875 z m 0,0"
         id="path3999"
         inkscape:connector-curvature="0" />
    </clipPath>
    <clipPath
       id="clip91">
      <path
         d="m 182,110 h 26 v 18 h -26 z m 0,0"
         id="path4002"
         inkscape:connector-curvature="0" />
    </clipPath>
    <clipPath
       id="clip92">
      <path
         d="m 250.71094,117.40625 c 0,5.45313 -4.42578,9.87891 -9.87891,9.87891 h -81.66406 c -5.45703,0 -9.87891,-4.42578 -9.87891,-9.87891 V 54.550781 c 0,-5.453125 4.42188,-9.875 9.87891,-9.875 h 81.66406 c 5.45313,0 9.87891,4.421875 9.87891,9.875 z m 0,0"
         id="path4005"
         inkscape:connector-curvature="0" />
    </clipPath>
    <clipPath
       id="clip93">
      <path
         d="m 219,89 h 26 v 22 h -26 z m 0,0"
         id="path4008"
         inkscape:connector-curvature="0" />
    </clipPath>
    <clipPath
       id="clip94">
      <path
         d="m 250.71094,117.40625 c 0,5.45313 -4.42578,9.87891 -9.87891,9.87891 h -81.66406 c -5.45703,0 -9.87891,-4.42578 -9.87891,-9.87891 V 54.550781 c 0,-5.453125 4.42188,-9.875 9.87891,-9.875 h 81.66406 c 5.45313,0 9.87891,4.421875 9.87891,9.875 z m 0,0"
         id="path4011"
         inkscape:connector-curvature="0" />
    </clipPath>
    <clipPath
       id="clip95">
      <path
         d="m 219,110 h 26 v 18 h -26 z m 0,0"
         id="path4014"
         inkscape:connector-curvature="0" />
    </clipPath>
    <clipPath
       id="clip96">
      <path
         d="m 250.71094,117.40625 c 0,5.45313 -4.42578,9.87891 -9.87891,9.87891 h -81.66406 c -5.45703,0 -9.87891,-4.42578 -9.87891,-9.87891 V 54.550781 c 0,-5.453125 4.42188,-9.875 9.87891,-9.875 h 81.66406 c 5.45313,0 9.87891,4.421875 9.87891,9.875 z m 0,0"
         id="path4017"
         inkscape:connector-curvature="0" />
    </clipPath>
    <clipPath
       id="clip97">
      <path
         d="m 203,123 h 20 v 5 h -20 z m 0,0"
         id="path4020"
         inkscape:connector-curvature="0" />
    </clipPath>
    <clipPath
       id="clip98">
      <path
         d="m 250.71094,117.40625 c 0,5.45313 -4.42578,9.87891 -9.87891,9.87891 h -81.66406 c -5.45703,0 -9.87891,-4.42578 -9.87891,-9.87891 V 54.550781 c 0,-5.453125 4.42188,-9.875 9.87891,-9.875 h 81.66406 c 5.45313,0 9.87891,4.421875 9.87891,9.875 z m 0,0"
         id="path4023"
         inkscape:connector-curvature="0" />
    </clipPath>
    <clipPath
       id="clip99">
      <path
         d="m 203,123 h 9 v 5 h -9 z m 0,0"
         id="path4026"
         inkscape:connector-curvature="0" />
    </clipPath>
    <clipPath
       id="clip100">
      <path
         d="m 250.71094,117.40625 c 0,5.45313 -4.42578,9.87891 -9.87891,9.87891 h -81.66406 c -5.45703,0 -9.87891,-4.42578 -9.87891,-9.87891 V 54.550781 c 0,-5.453125 4.42188,-9.875 9.87891,-9.875 h 81.66406 c 5.45313,0 9.87891,4.421875 9.87891,9.875 z m 0,0"
         id="path4029"
         inkscape:connector-curvature="0" />
    </clipPath>
    <clipPath
       id="clip101">
      <path
         d="m 222,113 h 20 v 15 h -20 z m 0,0"
         id="path4032"
         inkscape:connector-curvature="0" />
    </clipPath>
    <clipPath
       id="clip102">
      <path
         d="m 250.71094,117.40625 c 0,5.45313 -4.42578,9.87891 -9.87891,9.87891 h -81.66406 c -5.45703,0 -9.87891,-4.42578 -9.87891,-9.87891 V 54.550781 c 0,-5.453125 4.42188,-9.875 9.87891,-9.875 h 81.66406 c 5.45313,0 9.87891,4.421875 9.87891,9.875 z m 0,0"
         id="path4035"
         inkscape:connector-curvature="0" />
    </clipPath>
    <clipPath
       id="clip103">
      <path
         d="m 222,113 h 8 v 11 h -8 z m 0,0"
         id="path4038"
         inkscape:connector-curvature="0" />
    </clipPath>
    <clipPath
       id="clip104">
      <path
         d="m 250.71094,117.40625 c 0,5.45313 -4.42578,9.87891 -9.87891,9.87891 h -81.66406 c -5.45703,0 -9.87891,-4.42578 -9.87891,-9.87891 V 54.550781 c 0,-5.453125 4.42188,-9.875 9.87891,-9.875 h 81.66406 c 5.45313,0 9.87891,4.421875 9.87891,9.875 z m 0,0"
         id="path4041"
         inkscape:connector-curvature="0" />
    </clipPath>
    <clipPath
       id="clip105">
      <path
         d="m 185,113 h 20 v 15 h -20 z m 0,0"
         id="path4044"
         inkscape:connector-curvature="0" />
    </clipPath>
    <clipPath
       id="clip106">
      <path
         d="m 250.71094,117.40625 c 0,5.45313 -4.42578,9.87891 -9.87891,9.87891 h -81.66406 c -5.45703,0 -9.87891,-4.42578 -9.87891,-9.87891 V 54.550781 c 0,-5.453125 4.42188,-9.875 9.87891,-9.875 h 81.66406 c 5.45313,0 9.87891,4.421875 9.87891,9.875 z m 0,0"
         id="path4047"
         inkscape:connector-curvature="0" />
    </clipPath>
    <clipPath
       id="clip107">
      <path
         d="m 185,113 h 8 v 11 h -8 z m 0,0"
         id="path4050"
         inkscape:connector-curvature="0" />
    </clipPath>
    <clipPath
       id="clip108">
      <path
         d="m 250.71094,117.40625 c 0,5.45313 -4.42578,9.87891 -9.87891,9.87891 h -81.66406 c -5.45703,0 -9.87891,-4.42578 -9.87891,-9.87891 V 54.550781 c 0,-5.453125 4.42188,-9.875 9.87891,-9.875 h 81.66406 c 5.45313,0 9.87891,4.421875 9.87891,9.875 z m 0,0"
         id="path4053"
         inkscape:connector-curvature="0" />
    </clipPath>
    <clipPath
       id="clip109">
      <path
         d="m 203,102 h 20 v 17 h -20 z m 0,0"
         id="path4056"
         inkscape:connector-curvature="0" />
    </clipPath>
    <clipPath
       id="clip110">
      <path
         d="m 250.71094,117.40625 c 0,5.45313 -4.42578,9.87891 -9.87891,9.87891 h -81.66406 c -5.45703,0 -9.87891,-4.42578 -9.87891,-9.87891 V 54.550781 c 0,-5.453125 4.42188,-9.875 9.87891,-9.875 h 81.66406 c 5.45313,0 9.87891,4.421875 9.87891,9.875 z m 0,0"
         id="path4059"
         inkscape:connector-curvature="0" />
    </clipPath>
    <clipPath
       id="clip111">
      <path
         d="m 203,102 h 9 v 11 h -9 z m 0,0"
         id="path4062"
         inkscape:connector-curvature="0" />
    </clipPath>
    <clipPath
       id="clip112">
      <path
         d="m 250.71094,117.40625 c 0,5.45313 -4.42578,9.87891 -9.87891,9.87891 h -81.66406 c -5.45703,0 -9.87891,-4.42578 -9.87891,-9.87891 V 54.550781 c 0,-5.453125 4.42188,-9.875 9.87891,-9.875 h 81.66406 c 5.45313,0 9.87891,4.421875 9.87891,9.875 z m 0,0"
         id="path4065"
         inkscape:connector-curvature="0" />
    </clipPath>
    <clipPath
       id="clip113">
      <path
         d="m 222,91 h 20 v 18 h -20 z m 0,0"
         id="path4068"
         inkscape:connector-curvature="0" />
    </clipPath>
    <clipPath
       id="clip114">
      <path
         d="m 250.71094,117.40625 c 0,5.45313 -4.42578,9.87891 -9.87891,9.87891 h -81.66406 c -5.45703,0 -9.87891,-4.42578 -9.87891,-9.87891 V 54.550781 c 0,-5.453125 4.42188,-9.875 9.87891,-9.875 h 81.66406 c 5.45313,0 9.87891,4.421875 9.87891,9.875 z m 0,0"
         id="path4071"
         inkscape:connector-curvature="0" />
    </clipPath>
    <clipPath
       id="clip115">
      <path
         d="m 222,91 h 8 v 12 h -8 z m 0,0"
         id="path4074"
         inkscape:connector-curvature="0" />
    </clipPath>
    <clipPath
       id="clip116">
      <path
         d="m 250.71094,117.40625 c 0,5.45313 -4.42578,9.87891 -9.87891,9.87891 h -81.66406 c -5.45703,0 -9.87891,-4.42578 -9.87891,-9.87891 V 54.550781 c 0,-5.453125 4.42188,-9.875 9.87891,-9.875 h 81.66406 c 5.45313,0 9.87891,4.421875 9.87891,9.875 z m 0,0"
         id="path4077"
         inkscape:connector-curvature="0" />
    </clipPath>
    <clipPath
       id="clip117">
      <path
         d="m 185,91 h 20 v 18 h -20 z m 0,0"
         id="path4080"
         inkscape:connector-curvature="0" />
    </clipPath>
    <clipPath
       id="clip118">
      <path
         d="m 250.71094,117.40625 c 0,5.45313 -4.42578,9.87891 -9.87891,9.87891 h -81.66406 c -5.45703,0 -9.87891,-4.42578 -9.87891,-9.87891 V 54.550781 c 0,-5.453125 4.42188,-9.875 9.87891,-9.875 h 81.66406 c 5.45313,0 9.87891,4.421875 9.87891,9.875 z m 0,0"
         id="path4083"
         inkscape:connector-curvature="0" />
    </clipPath>
    <clipPath
       id="clip119">
      <path
         d="m 185,91 h 8 v 12 h -8 z m 0,0"
         id="path4086"
         inkscape:connector-curvature="0" />
    </clipPath>
    <clipPath
       id="clip120">
      <path
         d="m 250.71094,117.40625 c 0,5.45313 -4.42578,9.87891 -9.87891,9.87891 h -81.66406 c -5.45703,0 -9.87891,-4.42578 -9.87891,-9.87891 V 54.550781 c 0,-5.453125 4.42188,-9.875 9.87891,-9.875 h 81.66406 c 5.45313,0 9.87891,4.421875 9.87891,9.875 z m 0,0"
         id="path4089"
         inkscape:connector-curvature="0" />
    </clipPath>
    <clipPath
       id="clip121">
      <path
         d="m 203,81 h 20 v 17 h -20 z m 0,0"
         id="path4092"
         inkscape:connector-curvature="0" />
    </clipPath>
    <clipPath
       id="clip122">
      <path
         d="m 250.71094,117.40625 c 0,5.45313 -4.42578,9.87891 -9.87891,9.87891 h -81.66406 c -5.45703,0 -9.87891,-4.42578 -9.87891,-9.87891 V 54.550781 c 0,-5.453125 4.42188,-9.875 9.87891,-9.875 h 81.66406 c 5.45313,0 9.87891,4.421875 9.87891,9.875 z m 0,0"
         id="path4095"
         inkscape:connector-curvature="0" />
    </clipPath>
    <clipPath
       id="clip123">
      <path
         d="m 203,81 h 9 v 11 h -9 z m 0,0"
         id="path4098"
         inkscape:connector-curvature="0" />
    </clipPath>
    <clipPath
       id="clip124">
      <path
         d="m 250.71094,117.40625 c 0,5.45313 -4.42578,9.87891 -9.87891,9.87891 h -81.66406 c -5.45703,0 -9.87891,-4.42578 -9.87891,-9.87891 V 54.550781 c 0,-5.453125 4.42188,-9.875 9.87891,-9.875 h 81.66406 c 5.45313,0 9.87891,4.421875 9.87891,9.875 z m 0,0"
         id="path4101"
         inkscape:connector-curvature="0" />
    </clipPath>
    <clipPath
       id="clip125">
      <path
         d="m 149,89 h 22 v 22 h -22 z m 0,0"
         id="path4104"
         inkscape:connector-curvature="0" />
    </clipPath>
    <clipPath
       id="clip126">
      <path
         d="m 250.71094,117.40625 c 0,5.45313 -4.42578,9.87891 -9.87891,9.87891 h -81.66406 c -5.45703,0 -9.87891,-4.42578 -9.87891,-9.87891 V 54.550781 c 0,-5.453125 4.42188,-9.875 9.87891,-9.875 h 81.66406 c 5.45313,0 9.87891,4.421875 9.87891,9.875 z m 0,0"
         id="path4107"
         inkscape:connector-curvature="0" />
    </clipPath>
    <clipPath
       id="clip127">
      <path
         d="m 149,110 h 21 v 18 h -21 z m 0,0"
         id="path4110"
         inkscape:connector-curvature="0" />
    </clipPath>
    <clipPath
       id="clip128">
      <path
         d="m 250.71094,117.40625 c 0,5.45313 -4.42578,9.87891 -9.87891,9.87891 h -81.66406 c -5.45703,0 -9.87891,-4.42578 -9.87891,-9.87891 V 54.550781 c 0,-5.453125 4.42188,-9.875 9.87891,-9.875 h 81.66406 c 5.45313,0 9.87891,4.421875 9.87891,9.875 z m 0,0"
         id="path4113"
         inkscape:connector-curvature="0" />
    </clipPath>
    <clipPath
       id="clip129">
      <path
         d="m 163,100 h 26 v 22 h -26 z m 0,0"
         id="path4116"
         inkscape:connector-curvature="0" />
    </clipPath>
    <clipPath
       id="clip130">
      <path
         d="m 250.71094,117.40625 c 0,5.45313 -4.42578,9.87891 -9.87891,9.87891 h -81.66406 c -5.45703,0 -9.87891,-4.42578 -9.87891,-9.87891 V 54.550781 c 0,-5.453125 4.42188,-9.875 9.87891,-9.875 h 81.66406 c 5.45313,0 9.87891,4.421875 9.87891,9.875 z m 0,0"
         id="path4119"
         inkscape:connector-curvature="0" />
    </clipPath>
    <clipPath
       id="clip131">
      <path
         d="m 163,121 h 26 v 7 h -26 z m 0,0"
         id="path4122"
         inkscape:connector-curvature="0" />
    </clipPath>
    <clipPath
       id="clip132">
      <path
         d="m 250.71094,117.40625 c 0,5.45313 -4.42578,9.87891 -9.87891,9.87891 h -81.66406 c -5.45703,0 -9.87891,-4.42578 -9.87891,-9.87891 V 54.550781 c 0,-5.453125 4.42188,-9.875 9.87891,-9.875 h 81.66406 c 5.45313,0 9.87891,4.421875 9.87891,9.875 z m 0,0"
         id="path4125"
         inkscape:connector-curvature="0" />
    </clipPath>
    <clipPath
       id="clip133">
      <path
         d="m 166,123 h 20 v 5 h -20 z m 0,0"
         id="path4128"
         inkscape:connector-curvature="0" />
    </clipPath>
    <clipPath
       id="clip134">
      <path
         d="m 250.71094,117.40625 c 0,5.45313 -4.42578,9.87891 -9.87891,9.87891 h -81.66406 c -5.45703,0 -9.87891,-4.42578 -9.87891,-9.87891 V 54.550781 c 0,-5.453125 4.42188,-9.875 9.87891,-9.875 h 81.66406 c 5.45313,0 9.87891,4.421875 9.87891,9.875 z m 0,0"
         id="path4131"
         inkscape:connector-curvature="0" />
    </clipPath>
    <clipPath
       id="clip135">
      <path
         d="m 166,123 h 8 v 5 h -8 z m 0,0"
         id="path4134"
         inkscape:connector-curvature="0" />
    </clipPath>
    <clipPath
       id="clip136">
      <path
         d="m 250.71094,117.40625 c 0,5.45313 -4.42578,9.87891 -9.87891,9.87891 h -81.66406 c -5.45703,0 -9.87891,-4.42578 -9.87891,-9.87891 V 54.550781 c 0,-5.453125 4.42188,-9.875 9.87891,-9.875 h 81.66406 c 5.45313,0 9.87891,4.421875 9.87891,9.875 z m 0,0"
         id="path4137"
         inkscape:connector-curvature="0" />
    </clipPath>
    <clipPath
       id="clip137">
      <path
         d="m 149,113 h 19 v 15 h -19 z m 0,0"
         id="path4140"
         inkscape:connector-curvature="0" />
    </clipPath>
    <clipPath
       id="clip138">
      <path
         d="m 250.71094,117.40625 c 0,5.45313 -4.42578,9.87891 -9.87891,9.87891 h -81.66406 c -5.45703,0 -9.87891,-4.42578 -9.87891,-9.87891 V 54.550781 c 0,-5.453125 4.42188,-9.875 9.87891,-9.875 h 81.66406 c 5.45313,0 9.87891,4.421875 9.87891,9.875 z m 0,0"
         id="path4143"
         inkscape:connector-curvature="0" />
    </clipPath>
    <clipPath
       id="clip139">
      <path
         d="m 149,113 h 7 v 11 h -7 z m 0,0"
         id="path4146"
         inkscape:connector-curvature="0" />
    </clipPath>
    <clipPath
       id="clip140">
      <path
         d="m 250.71094,117.40625 c 0,5.45313 -4.42578,9.87891 -9.87891,9.87891 h -81.66406 c -5.45703,0 -9.87891,-4.42578 -9.87891,-9.87891 V 54.550781 c 0,-5.453125 4.42188,-9.875 9.87891,-9.875 h 81.66406 c 5.45313,0 9.87891,4.421875 9.87891,9.875 z m 0,0"
         id="path4149"
         inkscape:connector-curvature="0" />
    </clipPath>
    <clipPath
       id="clip141">
      <path
         d="m 166,102 h 20 v 17 h -20 z m 0,0"
         id="path4152"
         inkscape:connector-curvature="0" />
    </clipPath>
    <clipPath
       id="clip142">
      <path
         d="m 250.71094,117.40625 c 0,5.45313 -4.42578,9.87891 -9.87891,9.87891 h -81.66406 c -5.45703,0 -9.87891,-4.42578 -9.87891,-9.87891 V 54.550781 c 0,-5.453125 4.42188,-9.875 9.87891,-9.875 h 81.66406 c 5.45313,0 9.87891,4.421875 9.87891,9.875 z m 0,0"
         id="path4155"
         inkscape:connector-curvature="0" />
    </clipPath>
    <clipPath
       id="clip143">
      <path
         d="m 166,102 h 9 v 11 h -9 z m 0,0"
         id="path4158"
         inkscape:connector-curvature="0" />
    </clipPath>
    <clipPath
       id="clip144">
      <path
         d="m 250.71094,117.40625 c 0,5.45313 -4.42578,9.87891 -9.87891,9.87891 h -81.66406 c -5.45703,0 -9.87891,-4.42578 -9.87891,-9.87891 V 54.550781 c 0,-5.453125 4.42188,-9.875 9.87891,-9.875 h 81.66406 c 5.45313,0 9.87891,4.421875 9.87891,9.875 z m 0,0"
         id="path4161"
         inkscape:connector-curvature="0" />
    </clipPath>
    <clipPath
       id="clip145">
      <path
         d="m 149,92 h 19 v 17 h -19 z m 0,0"
         id="path4164"
         inkscape:connector-curvature="0" />
    </clipPath>
    <clipPath
       id="clip146">
      <path
         d="m 250.71094,117.40625 c 0,5.45313 -4.42578,9.87891 -9.87891,9.87891 h -81.66406 c -5.45703,0 -9.87891,-4.42578 -9.87891,-9.87891 V 54.550781 c 0,-5.453125 4.42188,-9.875 9.87891,-9.875 h 81.66406 c 5.45313,0 9.87891,4.421875 9.87891,9.875 z m 0,0"
         id="path4167"
         inkscape:connector-curvature="0" />
    </clipPath>
    <clipPath
       id="clip147">
      <path
         d="m 149,92 h 7 v 11 h -7 z m 0,0"
         id="path4170"
         inkscape:connector-curvature="0" />
    </clipPath>
    <clipPath
       id="clip148">
      <path
         d="m 250.71094,117.40625 c 0,5.45313 -4.42578,9.87891 -9.87891,9.87891 h -81.66406 c -5.45703,0 -9.87891,-4.42578 -9.87891,-9.87891 V 54.550781 c 0,-5.453125 4.42188,-9.875 9.87891,-9.875 h 81.66406 c 5.45313,0 9.87891,4.421875 9.87891,9.875 z m 0,0"
         id="path4173"
         inkscape:connector-curvature="0" />
    </clipPath>
    <clipPath
       id="clip149">
      <path
         d="m 238,79 h 13 v 22 h -13 z m 0,0"
         id="path4176"
         inkscape:connector-curvature="0" />
    </clipPath>
    <clipPath
       id="clip150">
      <path
         d="m 250.71094,117.40625 c 0,5.45313 -4.42578,9.87891 -9.87891,9.87891 h -81.66406 c -5.45703,0 -9.87891,-4.42578 -9.87891,-9.87891 V 54.550781 c 0,-5.453125 4.42188,-9.875 9.87891,-9.875 h 81.66406 c 5.45313,0 9.87891,4.421875 9.87891,9.875 z m 0,0"
         id="path4179"
         inkscape:connector-curvature="0" />
    </clipPath>
    <clipPath
       id="clip151">
      <path
         d="m 238,100 h 13 v 22 h -13 z m 0,0"
         id="path4182"
         inkscape:connector-curvature="0" />
    </clipPath>
    <clipPath
       id="clip152">
      <path
         d="m 250.71094,117.40625 c 0,5.45313 -4.42578,9.87891 -9.87891,9.87891 h -81.66406 c -5.45703,0 -9.87891,-4.42578 -9.87891,-9.87891 V 54.550781 c 0,-5.453125 4.42188,-9.875 9.87891,-9.875 h 81.66406 c 5.45313,0 9.87891,4.421875 9.87891,9.875 z m 0,0"
         id="path4185"
         inkscape:connector-curvature="0" />
    </clipPath>
    <clipPath
       id="clip153">
      <path
         d="m 241,102 h 10 v 18 h -10 z m 0,0"
         id="path4188"
         inkscape:connector-curvature="0" />
    </clipPath>
    <clipPath
       id="clip154">
      <path
         d="m 250.71094,117.40625 c 0,5.45313 -4.42578,9.87891 -9.87891,9.87891 h -81.66406 c -5.45703,0 -9.87891,-4.42578 -9.87891,-9.87891 V 54.550781 c 0,-5.453125 4.42188,-9.875 9.87891,-9.875 h 81.66406 c 5.45313,0 9.87891,4.421875 9.87891,9.875 z m 0,0"
         id="path4191"
         inkscape:connector-curvature="0" />
    </clipPath>
    <clipPath
       id="clip155">
      <path
         d="m 241,102 h 8 v 12 h -8 z m 0,0"
         id="path4194"
         inkscape:connector-curvature="0" />
    </clipPath>
    <clipPath
       id="clip156">
      <path
         d="m 250.71094,117.40625 c 0,5.45313 -4.42578,9.87891 -9.87891,9.87891 h -81.66406 c -5.45703,0 -9.87891,-4.42578 -9.87891,-9.87891 V 54.550781 c 0,-5.453125 4.42188,-9.875 9.87891,-9.875 h 81.66406 c 5.45313,0 9.87891,4.421875 9.87891,9.875 z m 0,0"
         id="path4197"
         inkscape:connector-curvature="0" />
    </clipPath>
    <clipPath
       id="clip157">
      <path
         d="m 241,81 h 10 v 17 h -10 z m 0,0"
         id="path4200"
         inkscape:connector-curvature="0" />
    </clipPath>
    <clipPath
       id="clip158">
      <path
         d="m 250.71094,117.40625 c 0,5.45313 -4.42578,9.87891 -9.87891,9.87891 h -81.66406 c -5.45703,0 -9.87891,-4.42578 -9.87891,-9.87891 V 54.550781 c 0,-5.453125 4.42188,-9.875 9.87891,-9.875 h 81.66406 c 5.45313,0 9.87891,4.421875 9.87891,9.875 z m 0,0"
         id="path4203"
         inkscape:connector-curvature="0" />
    </clipPath>
    <clipPath
       id="clip159">
      <path
         d="m 241,81 h 8 v 11 h -8 z m 0,0"
         id="path4206"
         inkscape:connector-curvature="0" />
    </clipPath>
    <clipPath
       id="clip160">
      <path
         d="m 250.71094,117.40625 c 0,5.45313 -4.42578,9.87891 -9.87891,9.87891 h -81.66406 c -5.45703,0 -9.87891,-4.42578 -9.87891,-9.87891 V 54.550781 c 0,-5.453125 4.42188,-9.875 9.87891,-9.875 h 81.66406 c 5.45313,0 9.87891,4.421875 9.87891,9.875 z m 0,0"
         id="path4209"
         inkscape:connector-curvature="0" />
    </clipPath>
    <linearGradient
       id="linearGradient4603">
      <stop
         id="stop4611"
         offset="0"
         style="stop-color:#f6e10f;stop-opacity:0.36585367" />
      <stop
         id="stop4607"
         offset="1"
         style="stop-color:#f6e10f;stop-opacity:1" />
    </linearGradient>
    <radialGradient
       gradientTransform="matrix(1.459835,-0.440754,0.418077,1.263757,-227.9885,414.3411)"
       gradientUnits="userSpaceOnUse"
       xlink:href="#linearGradient4603"
       id="radialGradient4609"
       fy="-278.61365"
       fx="767.13367"
       r="33.160084"
       cy="-278.61365"
       cx="767.13367" />
    <linearGradient
       id="linearGradient4613">
      <stop
         id="stop4615"
         offset="0"
         style="stop-color:#fbf500;stop-opacity:1" />
      <stop
         id="stop4617"
         offset="1"
         style="stop-color:#fbf500;stop-opacity:0" />
    </linearGradient>
    <radialGradient
       gradientTransform="matrix(0.04474667,-2.264342,1.640322,0.03241512,647.609,2365.125)"
       gradientUnits="userSpaceOnUse"
       xlink:href="#linearGradient4613"
       id="radialGradient4619"
       fy="-173.40308"
       fx="772.52582"
       r="42.042526"
       cy="-173.40308"
       cx="772.52582" />
    <style
       id="style28394"
       type="text/css">
   <![CDATA[
    .str1 {stroke:black;stroke-width:3.08459}
    .str0 {stroke:black;stroke-width:3.08459;stroke-linecap:round;stroke-linejoin:round}
    .fil1 {fill:none}
    .fil3 {fill:#1F1A17}
    .fil0 {fill:#FAF9EB}
    .fil2 {fill:#1F1A17;fill-rule:nonzero}
    .fnt0 {font-weight:normal;font-size:32.4516;font-family:'Verdana'}
   ]]>
  </style>
  </defs>
  <sodipodi:namedview
     id="base"
     pagecolor="#ffffff"
     bordercolor="#666666"
     borderopacity="1.0"
     inkscape:pageopacity="0.0"
     inkscape:pageshadow="2"
     inkscape:zoom="0.7"
     inkscape:cx="249.40251"
     inkscape:cy="174.21059"
     inkscape:document-units="mm"
     inkscape:current-layer="g151"
     showgrid="false"
     fit-margin-left="5"
     fit-margin-top="5"
     fit-margin-right="5"
     fit-margin-bottom="5"
     showguides="false"
     units="px"
     inkscape:window-width="1366"
     inkscape:window-height="740"
     inkscape:window-x="1920"
     inkscape:window-y="212"
     inkscape:window-maximized="1" />
  <metadata
     id="metadata5">
    <rdf:RDF>
      <cc:Work
         rdf:about="">
        <dc:format>image/svg+xml</dc:format>
        <dc:type
           rdf:resource="http://purl.org/dc/dcmitype/StillImage" />
        <dc:title></dc:title>
      </cc:Work>
    </rdf:RDF>
  </metadata>
  <g
     inkscape:label="Layer 1"
     inkscape:groupmode="layer"
     id="layer1"
     style="display:inline"
     transform="translate(-50.559938,-163.78245)">
    <g
       id="g151"
       inkscape:label="-Colors"
       style="display:inline"
       transform="matrix(5.1356992,0,0,5.1356992,-584.71325,-1299.2447)"
       sodipodi:insensitive="true">
      <path
         sodipodi:nodetypes="cc"
         inkscape:connector-curvature="0"
         id="path28517"
         d="m 140.35767,305.20622 c -1.78411,0.53594 -3.54665,0.69112 -5.46223,0.162"
         style="display:none;fill:none;stroke:#ffffff;stroke-width:0.07054047px;stroke-linecap:butt;stroke-linejoin:miter;stroke-opacity:1" />
      <path
         style="display:none;fill:none;stroke:#ffffff;stroke-width:0.07054047px;stroke-linecap:butt;stroke-linejoin:miter;stroke-opacity:1"
         d="m 140.35767,304.92686 c -1.78411,0.53594 -3.54665,0.69112 -5.46223,0.162"
         id="path28519"
         inkscape:connector-curvature="0"
         sodipodi:nodetypes="cc" />
      <g
         style="display:inline"
         id="g28525">
        <path
           sodipodi:nodetypes="cccccccccscccccccccccccccccccccccscccccsccccccccccccccsccscccccccccccccccccccccccccccccccccccccccccccccccccccccccccccccccccccccccscccsccccccccccsccsccccccccccccccccccscccccccccccccccsccccccccccccccccccscccccscscccssccccccccccccccccccsccccccccccccsccccccccccccccsccccscscccccccccccccccccc"
           style="display:inline;fill:#000000;fill-opacity:0.9818184;stroke:none;stroke-width:0;stroke-miterlimit:4;stroke-dasharray:none;stroke-opacity:1"
           d="m 128.75429,301.15387 c 0.27678,-0.0423 0.63935,-0.1342 0.82477,-0.20903 0.24991,-0.10072 0.29881,-0.15852 0.6969,-0.8229 0.33348,-0.55654 0.61068,-0.74361 1.19283,-0.80499 0.0815,-0.01 0.34846,-0.0165 0.59351,-0.0179 0.40504,-0.001 0.45314,-0.008 0.52931,-0.0666 0.23128,-0.17755 0.34182,-0.2172 0.64824,-0.23245 0.28591,-0.0144 0.5918,-10e-4 0.88804,0.0371 0.11807,0.0155 0.14712,0.01 0.16498,-0.0319 0.0122,-0.0296 -0.0649,-0.42642 -0.18627,-0.95298 -0.31685,-1.37509 -0.36735,-1.64848 -0.34606,-1.87375 0.0363,-0.38468 0.31716,-1.08599 0.55435,-1.38439 0.0437,-0.055 0.18018,-0.17515 0.3032,-0.26696 0.12308,-0.0918 0.22773,-0.18206 0.2327,-0.20056 0.0108,-0.0431 -0.0443,-0.0573 -0.27474,-0.07 -0.59486,-0.0324 -1.06733,-0.17418 -1.25878,-0.37762 -0.0708,-0.0752 -0.13325,-0.11604 -0.20816,-0.13613 -0.23877,-0.064 -0.45538,-0.29319 -0.52854,-0.5593 -0.0489,-0.17781 -0.0278,-0.47729 0.0484,-0.68842 0.067,-0.18544 0.39723,-0.85665 0.45721,-0.92913 0.0233,-0.0282 0.008,0.0407 -0.0426,0.19084 -0.0435,0.12918 -0.0899,0.26744 -0.10316,0.30709 -0.0205,0.0615 -0.007,0.0916 0.0887,0.20469 0.23237,0.27316 0.31904,0.55005 0.29832,0.953 -0.005,0.11699 -0.0109,0.22969 -0.0109,0.25035 5.3e-4,0.0291 0.0335,0.0423 0.14595,0.0587 0.0903,0.0135 0.17353,0.0409 0.22,0.0733 0.0619,0.0433 0.13271,0.0572 0.41318,0.0816 0.42878,0.0374 0.92504,0.14595 1.14042,0.24955 l 0.15992,0.0768 0.11292,-0.0502 c 0.12552,-0.0558 0.13352,-0.072 0.33142,-0.68161 0.0986,-0.30343 0.0889,-0.34126 -0.0755,-0.29657 -0.37234,0.10113 -0.63003,0.14621 -0.74318,0.12986 -0.28559,-0.0415 -0.63668,-0.29546 -0.83662,-0.60539 -0.30079,-0.46629 -0.44168,-1.3001 -0.2748,-1.62617 0.20206,-0.39478 0.63379,-0.71899 1.15741,-0.86916 0.27418,-0.0786 0.84589,-0.1972 1.08724,-0.22546 0.19229,-0.0225 0.23099,-0.0559 0.23036,-0.1984 -10e-4,-0.22186 -0.49689,-0.92919 -0.99178,-1.41461 -0.38908,-0.3816 -0.4112,-0.41642 -0.42496,-0.66837 -0.0263,-0.48095 0.0642,-1.04044 0.30613,-1.8925 0.14968,-0.52725 0.18364,-0.62382 0.24051,-0.68385 0.0765,-0.0806 0.16559,-0.0724 0.21283,0.0197 0.0512,0.0999 0.007,0.33522 -0.28699,1.52125 -0.20108,0.81171 -0.28036,1.1687 -0.26965,1.2145 0.018,0.0771 0.13874,0.21104 0.50057,0.55511 0.37269,0.35442 0.86614,0.94437 0.95922,1.14684 0.0135,0.0285 0.0609,0.0851 0.106,0.12593 l 0.0821,0.0742 0.26269,0.001 c 0.1445,10e-4 0.37367,0.0188 0.50929,0.0396 0.43029,0.0657 0.39694,0.069 0.53559,-0.0533 0.1745,-0.15392 0.58304,-0.43645 0.80491,-0.55659 0.1018,-0.055 0.37721,-0.17768 0.61202,-0.27233 0.23484,-0.0948 0.45768,-0.1951 0.49523,-0.2232 0.0742,-0.0556 0.1239,-0.16405 0.40269,-0.87808 0.0918,-0.23498 0.31349,-0.78228 0.49279,-1.21623 0.29675,-0.71817 0.33263,-0.79285 0.39966,-0.83165 0.053,-0.0306 0.0958,-0.0343 0.1529,-0.0135 0.0752,0.0281 0.0781,0.0355 0.0562,0.14532 -0.0122,0.0636 -0.14045,0.39341 -0.28397,0.73287 -0.14352,0.33946 -0.31553,0.74818 -0.38222,0.90829 -0.27875,0.669 -0.54996,1.16641 -0.66881,1.22661 -0.0392,0.0198 -0.23759,0.0981 -0.44087,0.17388 -0.49664,0.18514 -0.7278,0.29757 -0.92086,0.44792 -0.20993,0.16348 -0.34031,0.31993 -0.37572,0.45086 l -0.0285,0.10506 0.12851,0.0488 c 0.0708,0.0268 0.27179,0.10126 0.44695,0.16528 0.36723,0.13434 0.78483,0.33751 0.97415,0.47406 0.40355,0.29108 0.67151,0.79226 0.66831,1.25 -0.003,0.45866 -0.36802,1.09076 -0.82008,1.42095 -0.24414,0.17831 -0.38611,0.2102 -0.68877,0.15472 -0.13727,-0.0252 -0.3718,-0.0779 -0.52117,-0.11726 -0.23375,-0.0615 -0.27553,-0.066 -0.3,-0.0323 -0.0165,0.0228 -0.0178,0.18909 -0.003,0.39701 l 0.0257,0.35785 0.12539,0.0291 c 0.069,0.016 0.34719,0.0796 0.61829,0.14138 l 0.49291,0.11238 0.19095,-0.0777 c 0.25167,-0.10235 0.52555,-0.16973 0.67868,-0.16709 0.068,10e-4 0.26709,0.0264 0.44235,0.0561 l 0.31865,0.0539 0.0366,-0.0733 c 0.0619,-0.12416 0.0822,-0.13162 0.20988,-0.0786 0.066,0.0274 0.12567,0.0396 0.13774,0.0283 0.0122,-0.0109 0.0306,-0.12322 0.0418,-0.24916 0.0109,-0.12607 0.0365,-0.28869 0.056,-0.36152 0.0417,-0.15586 0.18516,-0.39088 0.31075,-0.50927 0.18867,-0.17791 0.18292,-0.15968 0.11712,-0.37125 -0.0999,-0.32117 -0.1201,-0.6824 -0.0245,-0.43718 0.0252,0.0645 0.11455,0.27542 0.1986,0.46849 0.084,0.19307 0.16281,0.40269 0.17504,0.4658 0.0502,0.25913 -0.0148,0.50444 -0.20375,0.76854 -0.14908,0.20839 -0.34916,0.38417 -0.77835,0.68382 -0.18475,0.12891 -0.66241,0.19981 -1.18903,0.17632 -0.11767,-0.005 -0.21848,0.004 -0.23132,0.022 -0.0136,0.0182 0.0228,0.11658 0.0857,0.23447 0.13204,0.24731 0.27718,0.6731 0.33548,0.98391 0.0774,0.41269 0.0663,0.62656 -0.0742,1.42869 -0.21132,1.20623 -0.20192,1.13504 -0.15284,1.1587 0.0756,0.0365 0.1581,0.0254 0.39898,-0.0539 0.12865,-0.0423 0.3169,-0.092 0.41827,-0.11061 0.17122,-0.0313 0.20412,-0.0283 0.46352,0.0408 0.32401,0.0865 0.31448,0.0885 0.55666,-0.12187 0.40235,-0.34962 0.88252,-0.65615 1.18935,-0.75925 0.28782,-0.0967 0.42409,-0.0942 0.92343,0.0167 0.3889,0.0863 0.47979,0.0979 0.71692,0.0903 0.14936,-0.005 0.27385,-0.005 0.27667,1.9e-4 0.003,0.005 -0.08,0.0203 -0.18406,0.0343 -0.35263,0.0475 -0.62936,0.11387 -0.68632,0.16472 -0.0485,0.0434 -0.0685,0.10465 -0.1391,0.42788 -0.0946,0.43327 -0.14042,0.53192 -0.32296,0.69499 -0.14051,0.12553 -0.32863,0.19915 -0.54933,0.21497 -0.15593,0.0109 -0.36522,-0.0233 -1.24558,-0.20545 l -0.37048,-0.0766 -0.21033,0.12037 c -0.29308,0.16778 -0.68479,0.24098 -1.13962,0.21296 -0.0563,-0.003 -0.0769,0.01 -0.0899,0.0587 -0.0382,0.14294 -0.11997,0.98555 -0.12946,1.3369 -0.005,0.20736 -0.0122,0.42493 -0.0156,0.48348 l -0.005,0.10641 0.23885,0.13461 c 0.58438,0.32931 1.32832,0.89751 1.54975,1.18368 0.0496,0.0641 0.10628,0.16228 0.1258,0.21824 0.0342,0.0975 0.0422,0.37039 0.0175,0.60446 -0.01,0.0958 0.01,0.14121 0.14432,0.35059 0.0857,0.1323 0.23966,0.35811 0.34202,0.50192 0.36799,0.51703 0.51054,0.78923 0.83657,1.59731 0.20689,0.51277 0.31333,0.87271 0.37567,1.27032 0.0995,0.63443 0.0953,1.12192 -0.0153,1.76349 -0.10139,0.58834 -0.0937,0.60859 0.57901,1.53799 0.65183,0.9005 0.65623,0.91234 0.0756,0.20469 -0.50085,-0.61044 -0.44992,-0.56494 -0.77696,-0.69428 -0.41958,-0.16597 -0.51883,-0.26201 -0.73359,-0.70988 -0.0907,-0.18907 -0.24268,-0.4609 -0.33779,-0.60405 -0.21648,-0.32581 -0.2583,-0.46965 -0.25919,-0.8918 -8e-4,-0.44646 -0.0392,-0.99643 -0.084,-1.21324 -0.0202,-0.0972 -0.0903,-0.37317 -0.15579,-0.61319 -0.17992,-0.65935 -0.21906,-0.87007 -0.21421,-1.15297 0.005,-0.32593 -10e-4,-0.35824 -0.17346,-0.72715 -0.0962,-0.20705 -0.1669,-0.3231 -0.22177,-0.36386 -0.0443,-0.0329 -0.12078,-0.0911 -0.16979,-0.12932 -0.0491,-0.0382 -0.1694,-0.20056 -0.2674,-0.36069 -0.18613,-0.30419 -0.35677,-0.48004 -0.63947,-0.659 -0.21481,-0.13595 -0.21651,-0.12864 -0.13529,0.57836 0.19119,1.66474 0.19178,3.13502 0.003,4.37981 -0.22257,1.46899 -0.50202,2.39593 -0.90697,3.0084 -0.16507,0.24967 -0.30597,0.39887 -0.53203,0.56338 -0.63295,0.46058 -1.40656,0.54774 -2.0052,0.22592 -0.76906,-0.41344 -1.4094,-1.69126 -1.70046,-3.3933 -0.1389,-0.81228 -0.20252,-2.32056 -0.36258,-4.76598 -0.0544,-0.82896 -0.10425,-1.53098 -0.11102,-1.56003 -0.007,-0.029 -0.0272,-0.0568 -0.0453,-0.0615 -0.0451,-0.0122 -0.42417,0.13013 -0.54329,0.20387 -0.0533,0.0329 -0.17268,0.0821 -0.26523,0.10926 -0.20096,0.0588 -0.20777,0.0737 -0.21747,0.47709 -0.0171,0.70841 0.13529,1.91225 0.30807,2.43505 0.12783,0.38683 0.10302,0.72098 -0.0942,1.26879 -0.15125,0.42 -0.27973,0.69523 -0.35658,0.76385 -0.0323,0.0289 -0.0996,0.0472 -0.16793,0.0457 -0.23089,-0.005 -0.24847,0 -0.30439,0.0855 -0.0798,0.12227 -0.19454,0.41022 -0.35721,0.89772 -0.0794,0.23826 -0.17496,0.49176 -0.21218,0.56337 -0.0591,0.11373 -0.0386,0.015 0.16131,-0.77923 0.12593,-0.50016 0.22787,-0.91452 0.2265,-0.92077 -0.001,-0.005 -0.11319,-0.20004 -0.24858,-0.43064 -0.26165,-0.44577 -0.48635,-0.96355 -0.54367,-1.25273 -0.10044,-0.50678 0.0805,-1.35984 0.41416,-1.95318 0.0544,-0.0967 0.20911,-0.33779 0.34385,-0.53582 0.38459,-0.56521 0.42642,-0.70267 0.32429,-1.06566 -0.0647,-0.2301 -0.0571,-0.25723 0.11591,-0.4102 0.18107,-0.1601 0.47505,-0.2778 0.9162,-0.36682 0.21902,-0.0442 0.41109,-0.0878 0.42681,-0.0969 0.0281,-0.0163 -0.0348,-0.33765 -0.0952,-0.48676 l -0.029,-0.0717 -0.29999,0.0485 c -0.46471,0.0751 -0.593,0.0793 -0.79008,0.0264 -0.0968,-0.026 -0.20462,-0.0683 -0.23951,-0.0938 -0.18527,-0.13584 -0.33491,-0.0996 -0.59093,0.14323 -0.25613,0.2429 -0.6269,0.54193 -0.92949,0.74966 -0.41654,0.28596 -0.73926,0.40933 -1.04694,0.40023 -0.0769,-10e-4 -0.19208,0.0197 -0.25894,0.0491 -0.0806,0.0357 -0.20918,0.055 -0.38861,0.059 -0.14745,0.003 -0.40033,0.0239 -0.56195,0.0458 -0.2862,0.0389 -0.65614,0.047 -0.70395,0.0153 -0.0135,-0.01 0.0742,-0.0306 0.19404,-0.0491 z m 5.64463,-2.78292 c 0.0763,0.43655 0.39535,2.13763 0.40979,2.18458 0.0217,0.0706 0.0804,0.0541 0.19593,-0.0553 0.0641,-0.0607 0.23136,-0.17869 0.37178,-0.26218 0.18262,-0.10858 0.25193,-0.1634 0.24341,-0.1925 -0.007,-0.0224 -0.18878,-0.33163 -0.40495,-0.68721 -0.21619,-0.35558 -0.48047,-0.81095 -0.58733,-1.01197 -0.27495,-0.5172 -0.3224,-0.51209 -0.22863,0.0247 z m 0.51823,-0.46337 c 0.47561,1.09526 1.61047,3.20292 1.96616,3.65155 0.23024,0.2904 0.56207,0.62947 0.97924,1.00062 0.4151,0.36932 0.95696,0.81305 1.08405,0.88771 0.0727,0.0427 0.0843,0.0435 0.087,0.005 0.001,-0.0243 -0.15185,-0.202 -0.34579,-0.39991 -0.62318,-0.63598 -1.0107,-1.05912 -1.00148,-1.09352 0.005,-0.0186 0.0778,-0.15713 0.16187,-0.308 0.62336,-1.11873 1.22928,-2.52943 1.62371,-3.7802 0.12106,-0.38378 0.14736,-0.52329 0.10113,-0.53569 -0.0388,-0.0108 -0.10858,0.13501 -0.39549,0.82435 -0.55174,1.32536 -0.7183,1.70677 -0.94884,2.17264 -0.2622,0.52981 -0.69447,1.33043 -0.74276,1.37563 -0.0245,0.023 -0.0733,-0.0207 -0.22788,-0.20415 -0.10818,-0.12837 -0.26094,-0.32134 -0.33951,-0.42881 -0.19807,-0.27095 -0.9308,-1.4963 -1.51396,-2.53185 -0.26842,-0.47662 -0.50609,-0.88353 -0.52819,-0.90423 -0.0778,-0.0731 -0.0619,0.0319 0.0408,0.26838 z m 1.20954,-4.363 c 0.0192,0.014 0.14563,0.005 0.28098,-0.0171 0.37126,-0.064 1.00209,-0.0812 1.43168,-0.039 0.17219,0.0169 0.19933,0.0109 0.21443,-0.047 0.0205,-0.0786 0.005,-0.36202 -0.0213,-0.40876 -0.0164,-0.0283 -0.14817,-0.0731 -0.46807,-0.15873 -0.51243,-0.13731 -0.63219,-0.14109 -1.02798,-0.0325 -0.23907,0.0656 -0.23923,0.0657 -0.32949,0.31593 -0.0945,0.26201 -0.11522,0.36179 -0.0802,0.38717 z m -0.97481,13.65732 c -0.005,0.35126 0.13909,0.999 0.38454,1.73201 0.16423,0.49042 0.31136,0.8203 0.54309,1.21757 0.31065,0.53259 0.44077,0.63573 0.40189,0.31854 -0.0363,-0.29597 -0.0728,-0.81345 -0.0748,-1.06025 -0.007,-0.85163 -0.0651,-1.23731 -0.2897,-1.92266 -0.18072,-0.55133 -0.40035,-0.87788 -0.63226,-0.94002 -0.0931,-0.0249 -0.17086,0.008 -0.2162,0.0904 -0.061,0.11156 -0.11387,0.36748 -0.11658,0.56442 z m 1.04025,0.12566 c 0.25798,0.62183 0.31691,0.91275 0.34988,1.72754 0.014,0.34486 0.031,0.7602 0.0382,0.92299 0.007,0.16281 0.0327,0.43525 0.0571,0.60541 0.0514,0.36017 0.0725,0.38692 0.39262,0.49664 0.34253,0.1174 0.67089,0.10642 1.09867,-0.0369 0.4131,-0.13837 0.8771,-0.41374 0.9123,-0.54143 0.007,-0.0251 -0.0187,-0.27474 -0.0569,-0.55468 l -0.0694,-0.50899 -0.58184,-0.90533 c -0.32002,-0.49793 -0.60571,-0.93951 -0.63487,-0.98126 -0.0507,-0.0727 -0.0754,-0.0824 -0.56197,-0.22297 -0.27994,-0.0809 -0.62278,-0.18649 -0.76186,-0.23473 -0.31186,-0.10818 -0.31956,-0.0982 -0.18182,0.23374 z m 3.00362,-7.001 c 0.17151,0.1155 0.31842,0.23984 0.47372,0.40088 0.26975,0.27975 0.29267,0.2751 0.31907,-0.0648 0.0199,-0.25564 0.14482,-2.67706 0.14205,-2.75281 -0.001,-0.0679 -0.0678,-0.0766 -0.10045,-0.0136 -0.0152,0.0293 -0.11048,0.29197 -0.21172,0.58371 -0.23071,0.66465 -0.58656,1.63235 -0.60405,1.64257 -0.007,0.004 -0.0234,0.0458 -0.0359,0.0924 -0.0156,0.0582 -0.0109,0.0931 0.0174,0.11157 z m -1.24783,7.39755 c 0.0615,0.0956 0.26197,0.41716 0.44516,0.71467 0.40699,0.66093 0.4377,0.68254 0.44194,0.31086 0.003,-0.29923 0.0367,-0.62414 0.12268,-1.19734 0.0859,-0.57279 0.0819,-0.58593 -0.14126,-0.46017 -0.15614,0.088 -0.51313,0.22982 -0.77622,0.30842 -0.1182,0.0352 -0.18297,0.0697 -0.19151,0.10153 -0.007,0.0268 0.0367,0.12512 0.0992,0.22197 z m 1.03638,0.21918 c -0.0636,0.5599 -0.0428,1.17872 0.0659,1.9659 0.0636,0.45974 0.0928,0.49244 0.23694,0.2634 0.12539,-0.19931 0.34611,-0.68761 0.46226,-1.02244 0.0891,-0.25682 0.21163,-0.77161 0.29105,-1.22284 l 0.0336,-0.19089 -0.2993,-0.5049 c -0.16463,-0.2777 -0.31634,-0.50948 -0.33715,-0.51505 -0.0209,-0.005 -0.0793,0.0122 -0.13,0.0393 l -0.0921,0.0495 -0.10004,0.4316 c -0.055,0.23739 -0.11414,0.55527 -0.13121,0.70639 z m 0.79859,-0.90677 c 0.13804,0.20995 0.26513,0.38093 0.28244,0.37997 0.0957,-0.005 0.0823,-0.24502 -0.0404,-0.72465 -0.0496,-0.19384 -0.0907,-0.3007 -0.11848,-0.30816 -0.0516,-0.014 -0.34533,0.17275 -0.36236,0.2302 -0.007,0.0225 0.10086,0.21269 0.23883,0.42264 z"
           id="path4573"
           inkscape:connector-curvature="0" />
        <path
           sodipodi:nodetypes="cc"
           inkscape:connector-curvature="0"
           id="path4691"
           d="m 140.37068,305.78543 c -1.78411,0.53594 -3.54665,0.69112 -5.46223,0.162"
           style="fill:none;stroke:#ffffff;stroke-width:0.07054047px;stroke-linecap:butt;stroke-linejoin:miter;stroke-opacity:1" />
        <path
           style="fill:none;stroke:#ffffff;stroke-width:0.07054047px;stroke-linecap:butt;stroke-linejoin:miter;stroke-opacity:1"
           d="m 140.37068,305.50607 c -1.78411,0.53594 -3.54665,0.69112 -5.46223,0.162"
           id="path4693"
           inkscape:connector-curvature="0"
           sodipodi:nodetypes="cc" />
        <path
           sodipodi:nodetypes="cc"
           inkscape:connector-curvature="0"
           id="path4699"
           d="m 137.65203,306.51872 c 0.02,-1.57897 -0.0109,-0.43637 -0.0499,-1.27215"
           style="fill:none;stroke:#000000;stroke-width:0.27934739;stroke-linecap:butt;stroke-linejoin:miter;stroke-miterlimit:4;stroke-dasharray:none;stroke-opacity:1" />
      </g>
    </g>
  </g>
</svg>
